<?xml version="1.0" encoding="UTF-8"?>
<svg id="Layer_2" xmlns="http://www.w3.org/2000/svg" xmlns:xlink="http://www.w3.org/1999/xlink" viewBox="0 0 174.96 107.04">
  <defs>
    <style>
      .cls-1 {
        fill: #e9e9da;
      }

      .cls-2 {
        isolation: isolate;
      }

      .cls-3 {
        fill: none;
        filter: url(#drop-shadow-1);
        stroke: #e9e9da;
        stroke-miterlimit: 10;
        stroke-width: 2px;
      }
    </style>
    <filter id="drop-shadow-1" x="0" y="0" width="174.96" height="107.04" filterUnits="userSpaceOnUse">
      <feOffset dx="7" dy="7"/>
      <feGaussianBlur result="blur" stdDeviation="5"/>
      <feFlood flood-color="#231f20" flood-opacity=".2"/>
      <feComposite in2="blur" operator="in"/>
      <feComposite in="SourceGraphic"/>
    </filter>
  </defs>
  <g id="Layer_1-2" data-name="Layer_1">
    <g>
      <rect id="Rectangle_27" class="cls-3" x="9.01" y="9.1" width="142.78" height="74.79" rx="5.3" ry="5.3"/>
      <g class="cls-2">
        <path class="cls-1" d="M33.48,33.84l.22.19c.72.69,2.42,1.13,3.61,1.13.66,0,1.49-.03,2.17-.19.66-.17,1.08-.45,1.08-.99,0-.36-.31-.55-1.09-.67-.81-.12-1.89-.12-2.99-.2-2.19-.19-4.61-.7-4.61-3.32s2.64-3.55,5.55-3.55c2.03,0,4.47.95,5.83,2l.22.19-2.24,1.56-.2-.22c-.72-.69-2.39-1.09-3.61-1.09-.67,0-1.38.03-1.91.2-.5.14-.83.42-.83.97,0,.42.34.64,1.11.78.81.16,1.89.17,2.97.25,2.17.17,4.61.66,4.61,3.16,0,2.77-3.1,3.55-6.07,3.55-2.02,0-4.47-.95-5.83-2l-.23-.16,2.24-1.6Z"/>
        <path class="cls-1" d="M50.83,28.86h-5.15v-2.44h12.93v2.44h-5.15v8.51h-2.64v-8.51Z"/>
        <path class="cls-1" d="M63.46,26.42v5.65c0,1.97,1.7,3.11,3.52,3.11s3.47-1.14,3.47-3.11v-5.65h2.63v5.54c0,2.94-1.5,5.66-6.1,5.66s-6.16-2.71-6.16-5.66v-5.54h2.64Z"/>
        <path class="cls-1" d="M75.29,26.42h5.97c3.88,0,5.83,3,5.83,5.47s-1.94,5.47-5.83,5.47h-5.97v-10.95ZM81.26,34.93c2.02,0,3.11-1.56,3.11-3.03s-1.11-3.02-3.11-3.02h-3.33v6.05h3.33Z"/>
        <path class="cls-1" d="M89.3,26.42h10.59v2.44h-7.95v1.81h7.29v2.44h-7.29v1.83h7.95v2.42h-10.59v-10.95Z"/>
        <path class="cls-1" d="M102.09,26.42h1.66l8.01,6.79v-6.79h2.63v10.95h-1.66l-7.99-6.79v6.79h-2.64v-10.95Z"/>
        <path class="cls-1" d="M121.74,28.86h-5.15v-2.44h12.93v2.44h-5.15v8.51h-2.64v-8.51Z"/>
      </g>
      <g class="cls-2">
        <path class="cls-1" d="M70.79,69.58c-.14-.09-.24-.21-.3-.37-.04-.14-.05-.28-.05-.4,0-.07.01-.17.04-.29.06-.12.09-.2.09-.25,0-.12-.09-.17-.27-.14-.14-.08-.33-.17-.56-.25-.22-.07-.39-.15-.52-.22-.13-.08-.24-.21-.32-.39-.07-.14-.11-.29-.11-.45,0-.22.07-.4.21-.55.14-.15.33-.23.57-.23.14,0,.29.04.43.12.14.08.23.13.27.15.26.18.49.27.67.27.14,0,.29-.05.43-.16.19-.14.29-.31.29-.49,0-.24-.17-.49-.52-.74l-.45-.31c-.25-.16-.46-.3-.61-.43s-.28-.31-.36-.52c-.06-.2-.09-.38-.09-.54,0-.44.14-.82.41-1.12.06-.07.12-.13.19-.17.07-.04.1-.07.12-.08.08-.06.14-.12.17-.18.03-.06.04-.17.04-.34,0-.08-.02-.2-.04-.35-.03-.15-.04-.26-.04-.33,0-.13.03-.25.09-.36.1-.17.26-.32.5-.46.24-.14.47-.21.68-.21.12,0,.22.02.31.07.22.11.32.3.32.58,0,.18-.04.4-.13.65s-.15.43-.17.52c.42,0,.84.08,1.25.23.41.16.62.41.62.76,0,.14-.06.3-.18.47-.12.17-.25.27-.4.31-.1.02-.16.04-.2.04-.1,0-.18-.02-.26-.07-.08-.05-.16-.11-.23-.18-.08-.07-.14-.13-.19-.18-.16-.12-.35-.18-.58-.18-.36,0-.54.15-.54.45,0,.16.07.29.2.4.13.11.32.23.56.36.18.1.29.16.32.2.28.19.48.43.62.72s.21.59.21.92c0,.54-.16,1.03-.49,1.46-.05.07-.11.14-.19.21-.08.07-.13.11-.17.14-.14.1-.25.19-.32.29-.1.11-.14.21-.14.29,0,.05,0,.11.02.18.01.07.02.16.04.27,0,.3-.06.55-.18.75-.12.2-.32.3-.59.3-.16,0-.3-.04-.44-.13Z"/>
        <path class="cls-1" d="M78.58,70.18c-.66,0-1.3-.18-1.93-.55-.63-.37-1.11-.84-1.43-1.41-.2-.35-.31-.71-.31-1.1,0-.34.09-.63.26-.88s.44-.43.8-.54c.14-.05.29-.07.45-.07.22,0,.42.04.6.12.19.08.43.2.73.35.3.19.56.32.79.4.18.06.32.09.41.09.25,0,.38-.13.38-.38,0-.18-.07-.39-.2-.62s-.29-.42-.49-.55c-.11-.08-.23-.15-.37-.2-.14-.05-.27-.09-.41-.12-.13-.03-.22-.05-.27-.06-.38-.08-.69-.18-.91-.3-.22-.11-.38-.3-.48-.57-.04-.13-.05-.25-.05-.36,0-.37.18-.69.54-.94s.77-.46,1.22-.6c.06-.01.25-.06.56-.13.31-.08.6-.17.85-.29.26-.11.39-.24.39-.37,0-.04-.02-.09-.07-.16-.06-.06-.16-.09-.31-.09-.17,0-.43.04-.77.14-.35.09-.69.18-1.03.28-.34.1-.66.18-.96.26-.31.08-.51.11-.62.08-.41-.08-.76-.26-1.05-.53-.29-.27-.44-.6-.44-1,0-.46.14-.78.43-.96.29-.19.6-.32.93-.39.33-.07.55-.12.66-.14.78-.2,1.51-.31,2.18-.31,1.38,0,2.41.46,3.08,1.37.34.44.5.98.5,1.6,0,.53-.13,1-.39,1.4-.26.41-.63.68-1.11.81.29.38.51.83.66,1.32s.22,1.01.22,1.54c0,.59-.09,1.15-.27,1.67s-.44.98-.79,1.35c-.53.56-1.19.85-2,.85Z"/>
        <path class="cls-1" d="M86.6,70.15c-.35.13-.69.19-1.03.19-.36,0-.67-.08-.94-.24-.27-.16-.46-.41-.57-.75-.05-.17-.07-.3-.07-.4,0-.44.19-.88.56-1.3s.92-.95,1.64-1.58c.36-.29.65-.55.88-.77-.94.04-1.72-.13-2.37-.5-.64-.37-1.12-.88-1.44-1.52-.32-.64-.48-1.35-.48-2.13,0-.67.12-1.35.35-2.03s.57-1.29,1-1.83c.37-.47.8-.82,1.29-1.05.49-.23,1.01-.35,1.58-.35.52,0,1.08.11,1.69.34.43.17.91.44,1.43.83.52.38.96.82,1.32,1.3.36.48.53.95.5,1.4.04.22.05.43.05.65,0,.74-.14,1.47-.41,2.17-.28.7-.67,1.55-1.19,2.55l-.34.68c-.47.95-.89,1.72-1.27,2.33-.38.61-.81,1.12-1.31,1.54-.24.19-.53.35-.88.48ZM87.11,62.59c.4,0,.74-.21,1.04-.62s.45-.87.45-1.36c0-.52-.19-.92-.56-1.21-.16-.12-.34-.18-.54-.18-.22,0-.45.06-.69.17-.25.11-.45.24-.62.39-.35.31-.52.68-.52,1.12,0,.47.19.89.58,1.28.26.28.55.41.86.41Z"/>
      </g>
    </g>
  </g>
</svg>