<?xml version="1.0" encoding="UTF-8"?>
<svg id="Layer_2" xmlns="http://www.w3.org/2000/svg" xmlns:xlink="http://www.w3.org/1999/xlink" viewBox="0 0 174.96 107.04">
  <defs>
    <style>
      .cls-1 {
        fill: #e9e9da;
      }

      .cls-2, .cls-3, .cls-4 {
        isolation: isolate;
      }

      .cls-5 {
        fill: none;
        filter: url(#drop-shadow-3);
        stroke: #e9e9da;
        stroke-miterlimit: 10;
        stroke-width: 2px;
      }

      .cls-3 {
        filter: url(#drop-shadow-1);
      }

      .cls-4 {
        filter: url(#drop-shadow-2);
      }
    </style>
    <filter id="drop-shadow-1" x="22.56" y="18.24" width="129.6" height="41.52" filterUnits="userSpaceOnUse">
      <feOffset dx="7" dy="7"/>
      <feGaussianBlur result="blur" stdDeviation="5"/>
      <feFlood flood-color="#231f20" flood-opacity=".2"/>
      <feComposite in2="blur" operator="in"/>
      <feComposite in="SourceGraphic"/>
    </filter>
    <filter id="drop-shadow-2" x="61.2" y="48" width="54.96" height="44.64" filterUnits="userSpaceOnUse">
      <feOffset dx="7" dy="7"/>
      <feGaussianBlur result="blur-2" stdDeviation="5"/>
      <feFlood flood-color="#231f20" flood-opacity=".2"/>
      <feComposite in2="blur-2" operator="in"/>
      <feComposite in="SourceGraphic"/>
    </filter>
    <filter id="drop-shadow-3" x="0" y="0" width="174.96" height="107.04" filterUnits="userSpaceOnUse">
      <feOffset dx="7" dy="7"/>
      <feGaussianBlur result="blur-3" stdDeviation="5"/>
      <feFlood flood-color="#231f20" flood-opacity=".2"/>
      <feComposite in2="blur-3" operator="in"/>
      <feComposite in="SourceGraphic"/>
    </filter>
  </defs>
  <g id="Layer_1-2" data-name="Layer_1">
    <g>
      <g id="INTRO" class="cls-3">
        <g class="cls-2">
          <path class="cls-1" d="M30.74,26.56h7.26c2.94,0,4.54,1.35,4.54,3.52,0,1.92-.95,3.39-3.58,3.6l4.33,3.83h-3.8l-4.3-3.83h-1.8v3.83h-2.64v-10.95ZM38.34,31.25c1.17,0,1.49-.28,1.49-1.19,0-.75-.72-1.06-1.75-1.06h-4.69v2.25h4.96Z"/>
          <path class="cls-1" d="M45.49,26.56h10.59v2.44h-7.95v1.81h7.29v2.44h-7.29v1.83h7.95v2.42h-10.59v-10.95Z"/>
          <path class="cls-1" d="M63.95,30.81h6.58v6.69h-1.72l-.33-.56c-1.05.53-2.27.77-3.54.77-3.63,0-5.91-1.86-6.49-4.43-.11-.41-.17-.85-.17-1.25s.06-.84.17-1.25c.58-2.55,2.88-4.43,6.49-4.43,2.14,0,4.07.7,5.29,2.03l.12.17-2.19,1.55-.2-.2c-.74-.7-1.83-1.13-3.02-1.13-2.38,0-3.93,1.49-3.93,3.25s1.53,3.24,3.93,3.24c1.17,0,2.22-.38,2.94-1.03v-.99h-3.94v-2.44Z"/>
          <path class="cls-1" d="M75.38,26.56v5.65c0,1.97,1.71,3.11,3.52,3.11s3.47-1.14,3.47-3.11v-5.65h2.63v5.54c0,2.94-1.5,5.66-6.1,5.66s-6.16-2.71-6.16-5.66v-5.54h2.64Z"/>
          <path class="cls-1" d="M87.2,26.56h2.64v8.52l8.63-.02v2.42l-11.28.02v-10.95Z"/>
          <path class="cls-1" d="M107.22,26.56h1.6l6.54,10.95h-3.03l-1.28-2.16h-6.04l-1.3,2.16h-3.02l6.54-10.95ZM109.58,32.91l-1.56-2.63-1.56,2.63h3.13Z"/>
          <path class="cls-1" d="M117.56,26.56h7.26c2.94,0,4.54,1.35,4.54,3.52,0,1.92-.95,3.39-3.58,3.6l4.33,3.83h-3.8l-4.3-3.83h-1.8v3.83h-2.64v-10.95ZM125.16,31.25c1.17,0,1.49-.28,1.49-1.19,0-.75-.72-1.06-1.75-1.06h-4.69v2.25h4.96Z"/>
        </g>
      </g>
      <g id="_89" class="cls-4">
        <g class="cls-2">
          <path class="cls-1" d="M71.32,69.71c-.14-.09-.24-.21-.3-.37-.04-.14-.05-.28-.05-.4,0-.07.01-.17.04-.29.06-.12.09-.2.09-.25,0-.12-.09-.17-.27-.14-.14-.08-.33-.17-.56-.25-.22-.07-.39-.15-.52-.23-.13-.08-.24-.21-.32-.39-.07-.14-.11-.29-.11-.45,0-.22.07-.4.21-.55.14-.15.33-.23.57-.23.14,0,.29.04.43.12.14.08.23.13.27.15.26.18.49.27.67.27.14,0,.29-.05.43-.16.19-.14.29-.31.29-.49,0-.24-.17-.49-.52-.74l-.45-.31c-.25-.16-.46-.3-.61-.43s-.28-.31-.36-.52c-.06-.2-.09-.38-.09-.54,0-.44.14-.82.41-1.12.06-.07.12-.13.19-.17.07-.04.1-.07.12-.08.08-.06.14-.12.17-.18.03-.06.05-.17.05-.34,0-.08-.02-.2-.05-.35-.03-.15-.04-.26-.04-.33,0-.13.03-.25.09-.36.1-.17.26-.32.5-.46.24-.14.47-.21.68-.21.12,0,.22.02.31.07.22.11.32.3.32.58,0,.18-.04.4-.14.65-.09.25-.15.43-.17.52.42,0,.84.08,1.25.23s.62.41.62.76c0,.14-.06.3-.18.47s-.25.27-.4.31c-.1.02-.16.04-.2.04-.1,0-.18-.02-.26-.07-.08-.05-.16-.11-.23-.18s-.14-.13-.19-.18c-.16-.12-.35-.18-.58-.18-.36,0-.54.15-.54.45,0,.16.07.29.2.4.13.11.32.23.56.36.18.1.29.16.32.2.28.19.48.43.62.72.14.29.21.59.21.92,0,.54-.16,1.03-.49,1.46-.05.07-.11.14-.19.21-.08.07-.14.11-.17.14-.14.1-.25.19-.32.29-.1.11-.14.21-.14.29,0,.05,0,.11.02.18.01.07.02.16.04.27,0,.3-.06.55-.18.75-.12.2-.32.3-.59.3-.16,0-.3-.04-.44-.13Z"/>
          <path class="cls-1" d="M79.55,70.33c-.9,0-1.74-.26-2.51-.79-.77-.53-1.32-1.24-1.65-2.14-.26-.72-.4-1.48-.4-2.29,0-1.1.23-2.21.7-3.32.47-1.11,1.09-2.11,1.85-3.01,1.2-1.43,2.21-2.14,3.04-2.14.25,0,.49.08.72.23.34.24.5.56.5.95,0,.48-.2.99-.59,1.54-.4.55-.85,1.08-1.37,1.61.12-.02.31-.04.58-.04.8,0,1.52.22,2.14.67.55.4.96.89,1.23,1.49s.4,1.25.4,1.96c0,.86-.19,1.7-.58,2.52-.38.82-.9,1.46-1.55,1.93-.74.55-1.59.83-2.54.83ZM81.39,65.13c0-.38-.06-.73-.19-1.04s-.31-.51-.55-.59c-.11-.05-.26-.07-.45-.07-.38,0-.79.1-1.21.3-.42.2-.71.43-.86.69-.16.26-.23.52-.23.77,0,.31.1.61.29.89.19.28.44.51.75.67.31.17.61.25.93.25.53,0,.94-.23,1.24-.68.19-.29.29-.68.29-1.19Z"/>
          <path class="cls-1" d="M88.57,70.29c-.35.13-.69.19-1.03.19-.36,0-.68-.08-.94-.24-.27-.16-.46-.41-.57-.75-.05-.17-.07-.3-.07-.4,0-.44.19-.88.56-1.31.37-.43.92-.95,1.64-1.57.36-.29.65-.55.88-.77-.94.04-1.73-.13-2.37-.5-.64-.37-1.12-.88-1.44-1.52-.32-.64-.48-1.35-.48-2.13,0-.67.12-1.35.35-2.03s.57-1.29,1-1.83c.37-.47.8-.82,1.29-1.05.49-.23,1.01-.35,1.57-.35.52,0,1.08.11,1.69.34.43.17.91.44,1.43.83.52.38.96.82,1.32,1.29.36.48.53.95.5,1.4.04.22.05.43.05.65,0,.74-.14,1.47-.41,2.17-.28.7-.67,1.55-1.19,2.55l-.34.68c-.47.95-.89,1.72-1.27,2.33-.38.61-.81,1.12-1.31,1.54-.24.19-.53.35-.88.48ZM89.07,62.72c.4,0,.74-.21,1.04-.62s.45-.87.45-1.36-.19-.92-.56-1.21c-.16-.12-.34-.18-.54-.18-.22,0-.45.06-.69.17-.25.11-.45.24-.62.39-.35.31-.52.68-.52,1.12,0,.47.19.89.58,1.28.26.28.55.41.86.41Z"/>
        </g>
      </g>
      <rect id="Rectangle_27" class="cls-5" x="9.04" y="9.23" width="142.78" height="74.79" rx="5.3" ry="5.3"/>
    </g>
  </g>
</svg>