<?xml version="1.0" encoding="UTF-8"?>
<svg id="Layer_2" xmlns="http://www.w3.org/2000/svg" xmlns:xlink="http://www.w3.org/1999/xlink" viewBox="0 0 174.96 107.04">
  <defs>
    <style>
      .cls-1 {
        fill: #e9e9da;
      }

      .cls-2 {
        filter: url(#drop-shadow-4);
      }

      .cls-3, .cls-4, .cls-5 {
        isolation: isolate;
      }

      .cls-6 {
        fill: none;
        filter: url(#drop-shadow-3);
        stroke: #e9e9da;
        stroke-miterlimit: 10;
        stroke-width: 2px;
      }

      .cls-4 {
        filter: url(#drop-shadow-1);
      }

      .cls-5 {
        filter: url(#drop-shadow-2);
      }
    </style>
    <filter id="drop-shadow-1" x="11.28" y="18.24" width="155.04" height="41.52" filterUnits="userSpaceOnUse">
      <feOffset dx="7" dy="7"/>
      <feGaussianBlur result="blur" stdDeviation="5"/>
      <feFlood flood-color="#231f20" flood-opacity=".2"/>
      <feComposite in2="blur" operator="in"/>
      <feComposite in="SourceGraphic"/>
    </filter>
    <filter id="drop-shadow-2" x="56.88" y="50.88" width="53.04" height="44.88" filterUnits="userSpaceOnUse">
      <feOffset dx="7" dy="7"/>
      <feGaussianBlur result="blur-2" stdDeviation="5"/>
      <feFlood flood-color="#231f20" flood-opacity=".2"/>
      <feComposite in2="blur-2" operator="in"/>
      <feComposite in="SourceGraphic"/>
    </filter>
    <filter id="drop-shadow-3" x="0" y="0" width="174.96" height="107.04" filterUnits="userSpaceOnUse">
      <feOffset dx="7" dy="7"/>
      <feGaussianBlur result="blur-3" stdDeviation="5"/>
      <feFlood flood-color="#231f20" flood-opacity=".2"/>
      <feComposite in2="blur-3" operator="in"/>
      <feComposite in="SourceGraphic"/>
    </filter>
    <filter id="drop-shadow-4" x="13.68" y="35.28" width="146.88" height="37.2" filterUnits="userSpaceOnUse">
      <feOffset dx="7" dy="7"/>
      <feGaussianBlur result="blur-4" stdDeviation="5"/>
      <feFlood flood-color="#231f20" flood-opacity=".2"/>
      <feComposite in2="blur-4" operator="in"/>
      <feComposite in="SourceGraphic"/>
    </filter>
  </defs>
  <g id="Layer_1-2" data-name="Layer_1">
    <g>
      <g id="INTRO" class="cls-4">
        <g class="cls-3">
          <path class="cls-1" d="M23.35,29.42l-4,1.17v-2.58l5.04-1.47s.05-.02.14-.02h1.45v10.95h-2.63v-8.05Z"/>
          <path class="cls-1" d="M35.85,33.94l.22.19c.72.69,2.42,1.12,3.61,1.12.66,0,1.49-.03,2.17-.19.66-.17,1.08-.45,1.08-.98,0-.36-.31-.55-1.09-.67-.81-.12-1.89-.12-2.99-.2-2.19-.19-4.61-.7-4.61-3.32s2.64-3.55,5.55-3.55c2.03,0,4.47.95,5.83,2l.22.19-2.24,1.56-.2-.22c-.72-.69-2.39-1.09-3.61-1.09-.67,0-1.38.03-1.91.2-.5.14-.83.42-.83.97,0,.42.34.64,1.11.78.81.16,1.89.17,2.97.25,2.17.17,4.61.66,4.61,3.16,0,2.77-3.1,3.55-6.07,3.55-2.02,0-4.47-.95-5.83-2l-.23-.16,2.24-1.6Z"/>
          <path class="cls-1" d="M48.05,26.53h10.59v2.44h-7.95v1.81h7.29v2.44h-7.29v1.83h7.95v2.42h-10.59v-10.95Z"/>
          <path class="cls-1" d="M60.84,26.53h1.72l4.96,6.51,4.97-6.51h1.72v10.95h-2.64v-5.49l-3.27,4.27h-1.58l-3.24-4.27v5.49h-2.64v-10.95Z"/>
          <path class="cls-1" d="M76.42,26.53h10.59v2.44h-7.95v1.81h7.29v2.44h-7.29v1.83h7.95v2.42h-10.59v-10.95Z"/>
          <path class="cls-1" d="M91.45,33.94l.22.19c.72.69,2.42,1.12,3.61,1.12.66,0,1.49-.03,2.17-.19.66-.17,1.08-.45,1.08-.98,0-.36-.31-.55-1.09-.67-.81-.12-1.89-.12-2.99-.2-2.19-.19-4.61-.7-4.61-3.32s2.64-3.55,5.55-3.55c2.03,0,4.47.95,5.83,2l.22.19-2.24,1.56-.2-.22c-.72-.69-2.39-1.09-3.61-1.09-.67,0-1.38.03-1.91.2-.5.14-.83.42-.83.97,0,.42.34.64,1.11.78.81.16,1.89.17,2.97.25,2.17.17,4.61.66,4.61,3.16,0,2.77-3.1,3.55-6.07,3.55-2.02,0-4.47-.95-5.83-2l-.23-.16,2.24-1.6Z"/>
          <path class="cls-1" d="M108.8,28.97h-5.15v-2.44h12.93v2.44h-5.15v8.51h-2.64v-8.51Z"/>
          <path class="cls-1" d="M118.79,26.53h10.59v2.44h-7.95v1.81h7.29v2.44h-7.29v1.83h7.95v2.42h-10.59v-10.95Z"/>
          <path class="cls-1" d="M131.58,26.53h7.26c2.94,0,4.54,1.34,4.54,3.52,0,1.92-.95,3.39-3.58,3.6l4.33,3.83h-3.8l-4.3-3.83h-1.8v3.83h-2.64v-10.95ZM139.19,31.22c1.17,0,1.49-.28,1.49-1.19,0-.75-.72-1.06-1.75-1.06h-4.69v2.25h4.96Z"/>
        </g>
      </g>
      <g id="_89" class="cls-5">
        <g class="cls-3">
          <path class="cls-1" d="M67.12,72.68c-.14-.09-.24-.21-.3-.37-.04-.14-.05-.28-.05-.4,0-.07.01-.17.04-.29.06-.12.09-.2.09-.25,0-.12-.09-.17-.27-.14-.14-.08-.33-.17-.56-.25-.22-.07-.39-.15-.52-.22-.13-.08-.24-.21-.32-.39-.07-.14-.11-.29-.11-.45,0-.21.07-.4.21-.55.14-.15.33-.22.57-.22.14,0,.29.04.43.12s.23.13.27.15c.26.18.49.27.67.27.14,0,.29-.05.43-.16.19-.14.29-.31.29-.49,0-.24-.17-.49-.52-.74l-.45-.31c-.25-.15-.46-.3-.61-.43-.16-.13-.28-.3-.36-.52-.06-.2-.09-.38-.09-.54,0-.44.14-.81.41-1.12.06-.07.12-.13.19-.17.07-.04.1-.07.12-.08.08-.06.14-.12.17-.18.03-.06.05-.17.05-.34,0-.08-.02-.2-.05-.35-.03-.15-.04-.26-.04-.33,0-.13.03-.25.09-.36.1-.17.26-.32.5-.46.24-.14.47-.21.68-.21.12,0,.22.03.31.07.22.11.32.3.32.58,0,.18-.04.4-.14.65-.09.25-.15.43-.17.52.42,0,.84.08,1.25.23s.62.41.62.76c0,.14-.06.3-.18.47s-.25.27-.4.3c-.1.03-.16.04-.2.04-.1,0-.18-.03-.26-.07-.08-.05-.16-.11-.23-.18-.08-.07-.14-.13-.19-.18-.16-.12-.35-.18-.58-.18-.36,0-.54.15-.54.45,0,.16.07.29.2.39.13.11.32.23.56.36.18.1.29.16.32.2.28.19.48.43.62.72.14.29.21.59.21.92,0,.54-.16,1.03-.49,1.46-.05.07-.11.14-.19.21-.08.07-.14.11-.17.13-.14.1-.25.19-.32.29-.1.11-.14.2-.14.29,0,.05,0,.11.02.18.01.07.02.16.04.27,0,.3-.06.55-.18.75-.12.2-.32.3-.59.3-.16,0-.3-.04-.44-.13Z"/>
          <path class="cls-1" d="M75.64,73.13c-.48.26-.99.39-1.53.39s-1.1-.13-1.61-.4c-.51-.26-.92-.64-1.23-1.12-.31-.48-.47-1.03-.47-1.66,0-.89.32-1.78.95-2.66.05-.06.14-.16.29-.31.02-.02.09-.09.21-.21.11-.11.18-.22.21-.31s.04-.16.04-.2c0-.12-.04-.25-.13-.4s-.14-.27-.18-.35c-.35-.76-.52-1.54-.52-2.34,0-.86.21-1.66.63-2.38.32-.55.74-.97,1.26-1.26.52-.29,1.05-.43,1.6-.43.49,0,.95.12,1.39.34.43.23.78.56,1.04,1,.26.44.4.96.4,1.56,0,1-.32,1.95-.97,2.84-.12.14-.23.27-.34.38-.28.3-.44.51-.5.63l-.32.32c.26.27.48.51.65.74.25.37.45.81.59,1.31.14.5.22,1,.22,1.49,0,.71-.15,1.32-.45,1.84-.32.53-.73.92-1.21,1.18ZM74.9,69.92c0-.3-.08-.6-.25-.89-.17-.29-.38-.48-.65-.55-.19-.05-.41.04-.67.26s-.43.47-.52.75c-.05.13-.07.27-.07.41,0,.3.11.55.34.76.23.21.49.31.77.31.19,0,.37-.05.53-.14.16-.1.3-.24.41-.43.07-.13.11-.29.11-.47ZM75,64.51c.21-.15.39-.35.54-.59.15-.25.22-.48.22-.69,0-.34-.17-.55-.52-.65-.12-.04-.24-.05-.36-.05-.31,0-.57.12-.77.37-.2.25-.3.52-.3.84,0,.22.05.41.16.58s.27.29.49.36c.14.05.32,0,.53-.15Z"/>
          <path class="cls-1" d="M82.34,73.26c-.35.13-.69.19-1.03.19-.36,0-.68-.08-.94-.24-.27-.16-.46-.41-.57-.75-.05-.17-.07-.3-.07-.4,0-.44.19-.88.56-1.3.37-.43.92-.95,1.64-1.57.36-.29.65-.55.88-.78-.94.04-1.73-.13-2.37-.5-.64-.37-1.12-.88-1.44-1.52-.32-.64-.48-1.35-.48-2.13,0-.67.12-1.35.35-2.02s.57-1.29,1-1.83c.37-.47.8-.82,1.29-1.05.49-.23,1.01-.35,1.57-.35.52,0,1.08.12,1.69.34.43.17.91.45,1.43.83.52.38.96.82,1.32,1.3.36.48.53.95.5,1.4.04.21.05.43.05.65,0,.74-.14,1.47-.41,2.17-.28.7-.67,1.55-1.19,2.55l-.34.68c-.47.95-.89,1.73-1.27,2.33s-.81,1.12-1.31,1.54c-.24.19-.53.35-.88.48ZM82.84,65.69c.4,0,.74-.21,1.04-.62s.45-.87.45-1.36-.19-.92-.56-1.21c-.16-.12-.34-.18-.54-.18-.22,0-.45.06-.69.17-.25.11-.45.24-.62.39-.35.31-.52.68-.52,1.12,0,.47.19.89.58,1.28.26.28.55.41.86.41Z"/>
        </g>
      </g>
      <rect id="Rectangle_27" class="cls-6" x="9.17" y="9.2" width="142.78" height="74.79" rx="5.3" ry="5.3"/>
      <g class="cls-2">
        <path class="cls-1" d="M23.06,43.5v3.43c0,.37.08.68.23.94.15.26.33.48.56.65.23.17.48.3.76.38.28.08.55.13.83.13s.55-.04.83-.13c.28-.09.53-.21.75-.38.22-.17.4-.39.55-.65.14-.26.21-.58.21-.94v-3.43h1.25v3.35c0,.56-.08,1.06-.24,1.49-.16.43-.4.79-.7,1.08-.31.29-.68.5-1.12.65-.44.14-.95.22-1.52.22s-1.08-.07-1.52-.22c-.45-.15-.83-.36-1.14-.65-.31-.29-.55-.65-.72-1.08-.17-.43-.25-.93-.25-1.49v-3.35h1.25Z"/>
        <path class="cls-1" d="M31.1,43.5l5.23,4.54v-4.54h1.25v6.63h-.75l-5.23-4.54v4.54h-1.25v-6.63h.75Z"/>
        <path class="cls-1" d="M40.16,43.5v5.38h5.35s0,1.24,0,1.24h-6.6s0-6.62,0-6.62h1.25Z"/>
        <path class="cls-1" d="M48.09,43.5v6.63h-1.25v-6.63h1.25Z"/>
        <path class="cls-1" d="M50.18,43.5l3.19,4.26,3.19-4.26h.76v6.63h-1.25v-3.88l-2.32,3.1h-.75l-2.32-3.1v3.88h-1.25v-6.63h.76Z"/>
        <path class="cls-1" d="M59.9,43.5v6.63h-1.25v-6.63h1.25Z"/>
        <path class="cls-1" d="M68.85,43.5v1.25h-3.19v5.38h-1.25v-5.38h-3.19v-1.25h7.63Z"/>
        <path class="cls-1" d="M76.36,43.5v1.25h-4.92v1.43h4.52v1.25h-4.52v1.44h4.92v1.25h-6.18v-6.63h6.18Z"/>
        <path class="cls-1" d="M81.2,43.5c.53,0,1.01.1,1.43.29.42.19.78.44,1.08.75.29.31.52.67.67,1.06.15.39.23.8.23,1.21s-.08.82-.23,1.21c-.16.4-.38.75-.67,1.07-.29.31-.65.56-1.08.75-.42.19-.9.29-1.43.29h-3.51v-6.63h3.51ZM78.94,48.87h2.26c.36,0,.67-.07.93-.2.26-.13.48-.29.66-.49.18-.2.31-.42.39-.66.09-.24.13-.48.13-.71s-.04-.46-.13-.71c-.09-.24-.22-.46-.39-.66-.18-.2-.4-.36-.66-.49-.26-.13-.57-.19-.93-.19h-2.26v4.11Z"/>
        <path class="cls-1" d="M93.85,43.5l3.88,6.63h-1.46l-.8-1.37h-3.98l-.8,1.37h-1.45l3.87-6.63h.74ZM93.48,45.34l-1.26,2.16h2.52l-1.26-2.16Z"/>
        <path class="cls-1" d="M98.07,46.81c.02-.56.13-1.06.34-1.48.21-.43.49-.78.84-1.07.35-.29.76-.51,1.23-.65s.98-.23,1.52-.23c.32,0,.65.03,1,.08.34.05.67.13.98.24.31.1.6.23.87.38s.49.32.67.53l-1.09.79c-.12-.11-.27-.22-.46-.31-.19-.1-.4-.18-.62-.24-.22-.06-.45-.11-.68-.15-.23-.04-.46-.06-.66-.06-.37,0-.72.06-1.04.17s-.6.26-.83.45c-.23.19-.42.42-.55.69s-.2.56-.2.88.07.62.2.89c.13.27.32.5.55.69.23.19.51.34.83.45s.67.16,1.04.16c.21,0,.43-.02.66-.05s.46-.09.68-.15c.22-.07.43-.14.62-.24.19-.09.34-.2.46-.31l1.09.78c-.18.2-.4.37-.67.52-.27.15-.56.28-.87.38-.31.11-.64.18-.98.24-.34.05-.67.08-1,.08-.54,0-1.05-.07-1.52-.22s-.88-.37-1.23-.65c-.35-.29-.63-.65-.84-1.08-.21-.43-.32-.93-.34-1.49Z"/>
        <path class="cls-1" d="M106.85,46.81c.02-.56.13-1.06.34-1.48.21-.43.49-.78.84-1.07.35-.29.76-.51,1.23-.65s.98-.23,1.52-.23c.32,0,.65.03,1,.08.34.05.67.13.98.24.31.1.6.23.87.38s.49.32.67.53l-1.09.79c-.12-.11-.27-.22-.46-.31-.19-.1-.4-.18-.62-.24-.22-.06-.45-.11-.68-.15-.23-.04-.46-.06-.66-.06-.37,0-.72.06-1.04.17s-.6.26-.83.45c-.23.19-.42.42-.55.69s-.2.56-.2.88.07.62.2.89c.13.27.32.5.55.69.23.19.51.34.83.45s.67.16,1.04.16c.21,0,.43-.02.66-.05s.46-.09.68-.15c.22-.07.43-.14.62-.24.19-.09.34-.2.46-.31l1.09.78c-.18.2-.4.37-.67.52-.27.15-.56.28-.87.38-.31.11-.64.18-.98.24-.34.05-.67.08-1,.08-.54,0-1.05-.07-1.52-.22s-.88-.37-1.23-.65c-.35-.29-.63-.65-.84-1.08-.21-.43-.32-.93-.34-1.49Z"/>
        <path class="cls-1" d="M121.82,43.5v1.25h-4.92v1.43h4.52v1.25h-4.52v1.44h4.92v1.25h-6.18v-6.63h6.18Z"/>
        <path class="cls-1" d="M126.69,43.37c.25,0,.53.04.83.09.3.05.61.13.92.24.31.11.61.23.91.38.3.15.57.33.82.52l-1.09.78c-.11-.12-.26-.22-.45-.31-.19-.09-.39-.17-.6-.24s-.44-.11-.67-.15c-.23-.04-.45-.05-.66-.05-.27,0-.51.01-.74.03s-.43.06-.6.13c-.17.06-.31.15-.4.27-.1.11-.15.27-.15.46,0,.16.06.29.18.38.12.09.28.16.48.21.2.05.43.09.7.1.27.02.54.04.83.06.37.03.75.06,1.13.11.38.04.72.13,1.03.26.31.13.56.31.75.55.19.24.29.56.29.97,0,.36-.08.67-.25.94-.17.26-.41.48-.71.65-.31.17-.68.3-1.12.38s-.93.12-1.48.13c-.25,0-.53-.04-.83-.09-.3-.05-.61-.13-.92-.23-.31-.1-.62-.23-.92-.38-.3-.15-.57-.33-.82-.52l1.09-.79c.12.11.27.22.46.31.18.1.38.17.6.24.22.06.44.11.67.15.23.04.45.06.66.06.28,0,.56,0,.82-.03.26-.02.5-.06.7-.13.21-.06.37-.15.49-.27.12-.12.18-.27.18-.45,0-.14-.05-.25-.15-.33-.1-.08-.24-.15-.42-.19-.18-.04-.38-.07-.61-.09-.23-.02-.48-.03-.74-.04-.25-.01-.52-.03-.79-.05-.27-.02-.54-.06-.79-.1-.26-.04-.5-.11-.73-.2-.23-.09-.43-.2-.6-.34s-.31-.32-.4-.53c-.1-.21-.15-.47-.15-.77,0-.34.08-.64.23-.91.15-.26.38-.48.66-.66.28-.18.63-.31,1.02-.4.4-.09.84-.14,1.33-.14Z"/>
        <path class="cls-1" d="M135.06,43.37c.25,0,.53.04.83.09.3.05.61.13.92.24.31.11.61.23.91.38.3.15.57.33.82.52l-1.09.78c-.11-.12-.26-.22-.45-.31-.19-.09-.39-.17-.6-.24s-.44-.11-.67-.15c-.23-.04-.45-.05-.66-.05-.27,0-.51.01-.74.03s-.43.06-.6.13c-.17.06-.31.15-.4.27-.1.11-.15.27-.15.46,0,.16.06.29.18.38.12.09.28.16.48.21s.43.09.7.1c.27.02.54.04.83.06.37.03.75.06,1.13.11.38.04.72.13,1.03.26.31.13.56.31.75.55.19.24.29.56.29.97,0,.36-.08.67-.25.94-.17.26-.41.48-.71.65-.31.17-.68.3-1.12.38s-.93.12-1.48.13c-.25,0-.53-.04-.83-.09-.3-.05-.61-.13-.92-.23-.31-.1-.62-.23-.92-.38-.3-.15-.57-.33-.82-.52l1.09-.79c.12.11.27.22.46.31.18.1.38.17.6.24.22.06.44.11.67.15.23.04.45.06.66.06.28,0,.56,0,.82-.03.26-.02.5-.06.7-.13.21-.06.37-.15.49-.27.12-.12.18-.27.18-.45,0-.14-.05-.25-.15-.33-.1-.08-.24-.15-.42-.19-.18-.04-.38-.07-.61-.09-.23-.02-.48-.03-.74-.04-.25-.01-.52-.03-.79-.05-.27-.02-.54-.06-.79-.1-.26-.04-.5-.11-.73-.2s-.43-.2-.6-.34c-.17-.14-.31-.32-.4-.53-.1-.21-.15-.47-.15-.77,0-.34.08-.64.23-.91.16-.26.38-.48.66-.66.29-.18.63-.31,1.03-.4s.84-.14,1.33-.14Z"/>
      </g>
    </g>
  </g>
</svg>