<?xml version="1.0" encoding="UTF-8"?>
<svg id="Layer_2" xmlns="http://www.w3.org/2000/svg" viewBox="0 0 332.79 28.33">
  <defs>
    <style>
      .cls-1 {
        isolation: isolate;
      }

      .cls-2 {
        fill: #1861ad;
      }

      .cls-3 {
        fill: #e9e9da;
        stroke: #1861ad;
        stroke-width: 2px;
      }
    </style>
  </defs>
  <g id="Layer_1-2" data-name="Layer_1">
    <g>
      <rect class="cls-3" x="1" y="1" width="330.79" height="26.33" rx="5.34" ry="5.34"/>
      <g class="cls-1">
        <path class="cls-2" d="M131.05,16.68l.02-1.55c.01-.33.02-.83.02-1.5,0-.46,0-.79-.02-1,0-.24,0-.46-.02-.65-.02-.19-.03-.36-.05-.51-.06-.73-.09-1.3-.09-1.71,0-1.33.24-2.34.73-3.03.41-.55,1.02-.93,1.82-1.15.8-.22,1.69-.33,2.64-.33.43,0,.74,0,.93.02,1.06.06,2.04.29,2.94.69.9.4,1.58,1.01,2.05,1.83.67,1.14,1,2.4,1,3.78,0,1.31-.27,2.6-.81,3.89-.54,1.29-1.25,2.4-2.13,3.33-.36.38-.91.78-1.64,1.2-.73.42-1.52.77-2.37,1.05s-1.62.42-2.32.42c-1.47,0-2.32-.64-2.53-1.94-.12-.83-.18-1.78-.18-2.85ZM137.2,15.71c.38-.39.71-.84,1-1.37.29-.52.47-.95.55-1.29.03-.12.05-.29.05-.5,0-.59-.21-1.11-.62-1.55-.41-.44-.93-.73-1.55-.87-.3-.06-.49-.09-.57-.09-.35,0-.58.12-.71.35-.12.24-.18.58-.18,1.04l.02,1.16-.05.66c-.05.73-.07,1.14-.07,1.23,0,1.2.33,1.8.98,1.8.38,0,.76-.19,1.14-.58Z"/>
        <path class="cls-2" d="M154.14,21.46c-.83,0-1.5-.63-2-1.9s-.87-2.58-1.12-3.95c-.03.02-.24.05-.61.11-.29.05-.58.1-.87.17-.29.07-.47.14-.55.22-.09.11-.15.32-.18.65s-.05.55-.07.67c-.15.62-.29,1.13-.42,1.51-.13.39-.32.74-.58,1.06-.47.58-1.04.87-1.71.87-.44,0-.85-.14-1.22-.42-.37-.28-.65-.66-.83-1.15-.18-.49-.27-1.09-.27-1.82,0-.39.03-.85.09-1.35s.13-1,.21-1.47c.12-.93.2-1.53.23-1.82.03-.36.05-.93.05-1.71v-1.68c0-1.28.06-2.28.18-3.01.14-.88.59-1.52,1.36-1.92.77-.4,1.71-.6,2.83-.6,1.03,0,2.08.14,3.15.43,1.07.29,1.9.63,2.49,1.03.74.49,1.29,1.06,1.65,1.71.36.65.54,1.35.54,2.09s-.19,1.55-.56,2.33c-.37.78-.9,1.48-1.58,2.11,1.38,2.05,2.07,3.75,2.07,5.1,0,.8-.26,1.46-.77,1.98-.53.52-1.03.77-1.5.77ZM151.14,11.51c.56-.39.84-.82.84-1.28,0-.41-.23-.77-.7-1.08-.46-.31-.98-.47-1.56-.47-.49,0-.83.03-1.02.08-.2.05-.34.23-.43.54-.05.15-.07.35-.07.59,0,.33.08.93.25,1.8.11.46.17.81.18,1.07,1.11-.44,1.94-.86,2.5-1.25Z"/>
        <path class="cls-2" d="M162.36,21.46c-.74,0-1.43-.14-2.07-.41-.7-.3-1.22-.73-1.56-1.29-.34-.55-.65-1.3-.92-2.24-.43-1.44-.64-2.75-.64-3.94,0-1.31.27-2.44.81-3.39.54-.96,1.43-1.65,2.68-2.09.68-.26,1.4-.39,2.16-.39,1.2,0,2.24.36,3.11,1.07s1.43,1.71,1.67,2.98c.15.84.23,1.66.23,2.48,0,1.58-.27,3-.81,4.27-.54,1.27-1.41,2.13-2.61,2.58-.68.24-1.37.36-2.05.36ZM162.82,18.64c.36,0,.68-.16.96-.47.27-.31.48-.71.62-1.2.21-.85.32-1.7.32-2.55,0-1.32-.3-2.15-.89-2.48-.18-.09-.36-.14-.55-.14-.42,0-.85.17-1.29.51s-.71.69-.83,1.06c-.17.5-.25,1.16-.25,1.98,0,.58.06,1.1.17,1.58.11.48.29.84.54,1.08.41.41.81.62,1.21.62Z"/>
        <path class="cls-2" d="M168.91,20.18c-.31-.86-.44-1.8-.4-2.83.06-1.21.09-2.59.09-4.12.03-1.82.07-3.19.11-4.1.01-.17.02-.41.02-.73.03-.85.09-1.53.18-2.04.09-.51.31-.94.66-1.3.35-.36.89-.55,1.62-.58,1.87-.06,3.55.22,5.04.84,1.5.62,2.34,1.74,2.54,3.35.01.09.02.23.02.41,0,.79-.26,1.51-.77,2.16-.52.65-1.18,1.23-2,1.73-.17.11-.38.21-.64.31s-.42.16-.5.19c-.08.03-.28.11-.62.24s-.61.29-.82.47c-.32.27-.53.64-.63,1.1-.1.46-.15,1.01-.15,1.65v.68c0,.81-.02,1.44-.07,1.91-.04.47-.21.91-.5,1.32-.29.41-.76.61-1.41.61-.88,0-1.48-.43-1.79-1.29ZM175.25,9.64c0-.39-.1-.78-.31-1.16-.21-.38-.47-.66-.81-.84-.21-.11-.4-.16-.55-.16-.41,0-.62.43-.62,1.28l.02.82c.01.15.02.35.02.59-.03.4-.05.65-.05.75,0,.21.03.37.1.47s.19.15.35.15c.12,0,.32-.04.59-.11.82-.27,1.23-.87,1.23-1.78Z"/>
        <path class="cls-2" d="M184.84,6.52c0-.59.21-1.15.63-1.69.42-.53.91-.88,1.49-1.05.15-.03.3-.05.43-.05.46,0,.9.1,1.32.31s.64.49.64.85c0,.05-.02.13-.05.25.06.17.09.35.09.55,0,.46-.14.9-.43,1.33-.29.43-.65.79-1.09,1.06s-.88.41-1.32.41c-.38,0-.71-.11-1-.34-.29-.23-.5-.58-.64-1.07-.05-.18-.07-.37-.07-.57ZM186.98,21.46c-.33,0-.64-.11-.92-.33-.28-.22-.51-.5-.69-.85-.35-.76-.52-1.81-.52-3.17,0-.67.07-1.74.21-3.21.03-.2.06-.53.09-1l.05-.48c.04-.68.12-1.26.22-1.73.1-.47.28-.84.54-1.12.3-.32.65-.48,1.02-.48s.71.13,1.04.39c.33.26.58.58.76.96.44.97.66,2.18.66,3.62,0,1.37-.2,3.02-.59,4.96-.02.09-.06.3-.13.64s-.17.63-.3.88c-.13.25-.3.45-.51.6-.3.21-.61.32-.91.32Z"/>
        <path class="cls-2" d="M190.1,18.14c0-.44.03-.99.09-1.66.03-.39.05-.67.05-.82.01-.23.02-.63.02-1.21.01-1.14.06-2.11.14-2.92s.25-1.57.52-2.3.68-1.23,1.23-1.5c.29-.15.6-.23.93-.23.5,0,.99.16,1.46.48.47.32.84.71,1.12,1.18.27.44.64,1.13,1.09,2.07.42.96.82,1.72,1.18,2.28l-.07-.8c-.08-.88-.11-1.46-.11-1.73,0-1.2.26-2.06.77-2.6.38-.39.81-.59,1.3-.59.41,0,.77.14,1.08.43.31.29.5.68.56,1.16.27,1.82.41,3.46.41,4.92,0,2.26-.3,4.03-.91,5.31-.43.91-.94,1.37-1.55,1.37-.74,0-1.5-.52-2.28-1.56-.77-1.04-1.59-2.33-2.46-3.86l-.46-.8-.14.71c-.27,1.56-.6,2.95-.99,4.17-.39,1.21-.88,1.82-1.49,1.82-.24,0-.5-.14-.77-.43-.49-.53-.73-1.5-.73-2.89Z"/>
      </g>
    </g>
  </g>
</svg>