<?xml version="1.0" encoding="UTF-8"?>
<svg id="Layer_2" xmlns="http://www.w3.org/2000/svg" xmlns:xlink="http://www.w3.org/1999/xlink" viewBox="0 0 174.96 107.04">
  <defs>
    <style>
      .cls-1 {
        fill: #e9e9da;
      }

      .cls-2, .cls-3, .cls-4 {
        isolation: isolate;
      }

      .cls-5 {
        fill: none;
        filter: url(#drop-shadow-1);
        stroke: #e9e9da;
        stroke-miterlimit: 10;
        stroke-width: 2px;
      }

      .cls-3 {
        filter: url(#drop-shadow-2);
      }

      .cls-4 {
        filter: url(#drop-shadow-3);
      }
    </style>
    <filter id="drop-shadow-1" x="0" y="0" width="174.96" height="107.04" filterUnits="userSpaceOnUse">
      <feOffset dx="7" dy="7"/>
      <feGaussianBlur result="blur" stdDeviation="5"/>
      <feFlood flood-color="#231f20" flood-opacity=".2"/>
      <feComposite in2="blur" operator="in"/>
      <feComposite in="SourceGraphic"/>
    </filter>
    <filter id="drop-shadow-2" x="23.28" y="18.24" width="128.4" height="41.52" filterUnits="userSpaceOnUse">
      <feOffset dx="7" dy="7"/>
      <feGaussianBlur result="blur-2" stdDeviation="5"/>
      <feFlood flood-color="#231f20" flood-opacity=".2"/>
      <feComposite in2="blur-2" operator="in"/>
      <feComposite in="SourceGraphic"/>
    </filter>
    <filter id="drop-shadow-3" x="60.72" y="48" width="55.2" height="44.88" filterUnits="userSpaceOnUse">
      <feOffset dx="7" dy="7"/>
      <feGaussianBlur result="blur-3" stdDeviation="5"/>
      <feFlood flood-color="#231f20" flood-opacity=".2"/>
      <feComposite in2="blur-3" operator="in"/>
      <feComposite in="SourceGraphic"/>
    </filter>
  </defs>
  <g id="Layer_1-2" data-name="Layer_1">
    <g>
      <rect id="Rectangle_27" class="cls-5" x="9.13" y="9.23" width="142.78" height="74.79" rx="5.3" ry="5.3"/>
      <g id="INTRO" class="cls-3">
        <g class="cls-2">
          <path class="cls-1" d="M33.61,33.97l.22.19c.72.69,2.42,1.13,3.61,1.13.66,0,1.49-.03,2.17-.19.66-.17,1.08-.45,1.08-.99,0-.36-.31-.55-1.09-.67-.81-.12-1.89-.12-2.99-.2-2.19-.19-4.61-.7-4.61-3.32s2.64-3.55,5.55-3.55c2.03,0,4.47.96,5.83,2l.22.19-2.24,1.56-.2-.22c-.72-.69-2.39-1.09-3.61-1.09-.67,0-1.38.03-1.91.2-.5.14-.83.42-.83.97,0,.42.34.64,1.11.78.81.16,1.89.17,2.97.25,2.17.17,4.61.66,4.61,3.16,0,2.77-3.1,3.55-6.07,3.55-2.02,0-4.47-.96-5.83-2l-.23-.16,2.24-1.6Z"/>
          <path class="cls-1" d="M50.95,29h-5.15v-2.44h12.93v2.44h-5.15v8.51h-2.64v-8.51Z"/>
          <path class="cls-1" d="M63.59,26.56v5.65c0,1.97,1.7,3.11,3.52,3.11s3.47-1.14,3.47-3.11v-5.65h2.63v5.54c0,2.94-1.5,5.66-6.1,5.66s-6.16-2.71-6.16-5.66v-5.54h2.64Z"/>
          <path class="cls-1" d="M75.41,26.56h5.97c3.88,0,5.83,3,5.83,5.47s-1.94,5.47-5.83,5.47h-5.97v-10.95ZM81.39,35.07c2.02,0,3.11-1.56,3.11-3.03s-1.11-3.02-3.11-3.02h-3.33v6.05h3.33Z"/>
          <path class="cls-1" d="M89.42,26.56h10.59v2.44h-7.95v1.81h7.29v2.44h-7.29v1.83h7.95v2.42h-10.59v-10.95Z"/>
          <path class="cls-1" d="M102.22,26.56h1.66l8.01,6.79v-6.79h2.63v10.95h-1.66l-7.99-6.79v6.79h-2.64v-10.95Z"/>
          <path class="cls-1" d="M121.86,29h-5.15v-2.44h12.93v2.44h-5.15v8.51h-2.64v-8.51Z"/>
        </g>
      </g>
      <g id="_89" class="cls-4">
        <g class="cls-2">
          <path class="cls-1" d="M70.91,69.71c-.14-.09-.24-.21-.3-.37-.04-.14-.05-.28-.05-.4,0-.07.01-.17.04-.29.06-.12.09-.2.09-.25,0-.12-.09-.17-.27-.14-.14-.08-.33-.17-.56-.25-.22-.07-.39-.15-.52-.23-.13-.08-.24-.21-.32-.39-.07-.14-.11-.29-.11-.45,0-.22.07-.4.21-.55.14-.15.33-.23.57-.23.14,0,.29.04.43.12.14.08.23.13.27.15.26.18.49.27.67.27.14,0,.29-.05.43-.16.19-.14.29-.31.29-.49,0-.24-.17-.49-.52-.74l-.45-.31c-.25-.16-.46-.3-.61-.43s-.28-.31-.36-.52c-.06-.2-.09-.38-.09-.54,0-.44.14-.82.41-1.12.06-.07.12-.13.19-.17.07-.04.1-.07.12-.08.08-.06.14-.12.17-.18.03-.06.04-.17.04-.34,0-.08-.02-.2-.04-.35-.03-.15-.04-.26-.04-.33,0-.13.03-.25.09-.36.1-.17.26-.32.5-.46s.47-.21.68-.21c.12,0,.22.02.31.07.22.11.32.3.32.58,0,.18-.04.4-.13.65s-.15.43-.17.52c.42,0,.84.08,1.25.23s.62.41.62.76c0,.14-.06.3-.18.47-.12.17-.25.27-.4.31-.1.02-.16.04-.2.04-.1,0-.18-.02-.26-.07-.08-.05-.16-.11-.23-.18-.08-.07-.14-.13-.19-.18-.16-.12-.35-.18-.58-.18-.36,0-.54.15-.54.45,0,.16.07.29.2.4.13.11.32.23.56.36.18.1.29.16.32.2.28.19.48.43.62.72s.21.59.21.92c0,.54-.16,1.03-.49,1.46-.05.07-.11.14-.19.21-.08.07-.13.11-.17.14-.14.1-.25.19-.32.29-.1.11-.14.21-.14.29,0,.05,0,.11.02.18.01.07.02.16.04.27,0,.3-.06.55-.18.75-.12.2-.32.3-.59.3-.16,0-.3-.04-.44-.13Z"/>
          <path class="cls-1" d="M78.85,69c-.07-.4-.1-.84-.1-1.33l.02-1.15c-.36.02-.63.04-.81.04-.95,0-1.75-.17-2.39-.5-.65-.33-.97-.84-.97-1.54,0-.37.11-.8.32-1.28.41-.9.87-2.07,1.39-3.51l.22-.7c.14-.46.27-.82.37-1.08.1-.26.23-.52.39-.76.17-.24.38-.45.65-.62.26-.17.52-.26.77-.26.34,0,.61.16.83.49.11.18.16.37.16.56,0,.26-.07.54-.21.82-.14.28-.32.6-.55.96-.1.14-.17.26-.22.34-.41.7-.71,1.25-.92,1.67s-.31.82-.31,1.21c0,.67.46,1.03,1.39,1.06,0-.2,0-.36.02-.47.01-.67.05-1.24.12-1.69.07-.46.21-.85.42-1.17.14-.22.33-.39.57-.52.23-.13.46-.2.69-.2.3,0,.56.12.79.36.25.28.38.83.38,1.67l-.02.76c-.01.12-.02.28-.02.49l-.02.56c0,.11.02.19.07.25s.16.13.34.22c.13.07.34.12.61.14.22.02.39.06.51.1.13.04.25.13.37.28.2.24.31.47.31.68,0,.28-.13.51-.39.71-.26.2-.62.4-1.07.62-.24.12-.38.19-.41.22-.11.06-.19.1-.24.13s-.09.07-.11.13c-.02.06-.04.16-.08.31-.04.12-.06.27-.07.46-.01.19-.02.31-.02.37,0,.19,0,.33-.02.41-.01.11-.03.33-.06.67-.03.34-.09.64-.19.9-.12.29-.28.51-.48.67-.2.16-.42.24-.66.24-.4,0-.73-.22-1.01-.67-.18-.3-.3-.65-.37-1.04Z"/>
          <path class="cls-1" d="M88.38,70.29c-.35.13-.69.19-1.03.19-.36,0-.67-.08-.94-.24-.27-.16-.46-.41-.57-.75-.05-.17-.07-.3-.07-.4,0-.44.19-.88.56-1.31.37-.43.92-.95,1.64-1.57.36-.29.65-.55.88-.77-.94.04-1.72-.13-2.37-.5-.64-.37-1.12-.88-1.44-1.52-.32-.64-.48-1.35-.48-2.13,0-.67.12-1.35.35-2.03s.57-1.29,1-1.83c.37-.47.8-.82,1.29-1.05.49-.23,1.01-.35,1.58-.35.52,0,1.08.11,1.69.34.43.17.91.44,1.43.83.52.38.96.82,1.32,1.29.36.48.53.95.5,1.4.04.22.05.43.05.65,0,.74-.14,1.47-.41,2.17-.28.7-.67,1.55-1.19,2.55l-.34.68c-.47.95-.89,1.72-1.27,2.33-.38.61-.81,1.12-1.31,1.54-.24.19-.53.35-.88.48ZM88.89,62.72c.4,0,.74-.21,1.04-.62s.45-.87.45-1.36-.19-.92-.56-1.21c-.16-.12-.34-.18-.54-.18-.22,0-.45.06-.69.17-.25.11-.45.24-.62.39-.35.31-.52.68-.52,1.12,0,.47.19.89.58,1.28.26.28.55.41.86.41Z"/>
        </g>
      </g>
    </g>
  </g>
</svg>