<?xml version="1.0" encoding="UTF-8"?>
<svg id="Layer_2" xmlns="http://www.w3.org/2000/svg" xmlns:xlink="http://www.w3.org/1999/xlink" viewBox="0 0 333.05 28.59">
  <defs>
    <style>
      .cls-1 {
        filter: url(#drop-shadow-1);
      }

      .cls-2 {
        isolation: isolate;
      }

      .cls-3 {
        fill: #1861ad;
      }

      .cls-4 {
        stroke-miterlimit: 10;
      }

      .cls-4, .cls-5 {
        fill: #e9e9da;
        stroke: #1861ad;
        stroke-width: 2px;
      }
    </style>
    <filter id="drop-shadow-1" x="-8.1" y="-8.21" width="363.36" height="58.8" filterUnits="userSpaceOnUse">
      <feOffset dx="7" dy="7"/>
      <feGaussianBlur result="blur" stdDeviation="5"/>
      <feFlood flood-color="#231f20" flood-opacity=".2"/>
      <feComposite in2="blur" operator="in"/>
      <feComposite in="SourceGraphic"/>
    </filter>
  </defs>
  <g id="Layer_1-2" data-name="Layer_1">
    <g>
      <g id="Rectangle_38" class="cls-1">
        <rect class="cls-4" x="1" y="1" width="331.05" height="26.59" rx="5.47" ry="5.47"/>
        <rect class="cls-5" x="1.13" y="1.13" width="330.79" height="26.33" rx="5.34" ry="5.34"/>
      </g>
      <g class="cls-2">
        <path class="cls-3" d="M89.12,21.94c-.5-.16-.89-.44-1.16-.83-.21-.3-.32-.62-.32-.93,0-.39.17-.72.51-.99.34-.26.75-.39,1.24-.38.29,0,.68.1,1.18.3.64.21,1.1.32,1.39.32.47,0,.83-.21,1.09-.64.14-.23.21-.43.21-.61,0-.36-.17-.69-.52-.97s-.78-.55-1.3-.81c-2.1-1.02-3.14-2.57-3.14-4.67,0-.3.02-.62.07-.93.18-1.29.7-2.41,1.56-3.36.86-.95,1.92-1.61,3.18-1.97.64-.2,1.28-.3,1.94-.3.8,0,1.46.17,1.98.5.26.15.47.37.64.65.17.28.25.56.25.83,0,.23-.07.44-.22.63-.14.19-.36.33-.65.42-.99.3-1.86.77-2.61,1.39-.75.62-1.13,1.29-1.13,2s.38,1.37,1.14,2c.35.29.66.52.93.71.52.39.92.73,1.21,1.01.29.28.53.63.73,1.06.29.62.43,1.27.43,1.96,0,.61-.11,1.18-.34,1.73-.36.9-.95,1.53-1.76,1.91-.81.38-1.75.57-2.81.57-.61,0-1.18-.05-1.73-.14-.82-.15-1.48-.31-1.98-.47Z"/>
        <path class="cls-3" d="M102.1,19.83l.02-.57c.02-.61.04-1.13.07-1.58.03-.45.05-.82.07-1.1.11-1.49.16-2.78.16-3.87,0-.47,0-.83-.02-1.07-.46.03-.83.05-1.14.05-.59,0-1.1-.08-1.53-.24-.42-.16-.74-.46-.96-.9-.12-.23-.18-.49-.18-.8,0-.33.08-.64.25-.92.17-.28.41-.5.73-.65.26-.12.63-.18,1.12-.18.36,0,1.02.07,1.98.21.42.06.82.11,1.18.14.18.02.46.02.84.02.83,0,1.48.02,1.92.06s.88.16,1.31.35c.29.14.53.35.73.63.2.28.3.57.3.88s-.09.55-.27.77c-.33.42-1.07.64-2.21.64l-1.05-.02.11.71c.18,1.14.33,2.14.43,3.02.11.87.16,1.76.16,2.68,0,2.98-.74,4.47-2.23,4.49-1.2.01-1.8-.89-1.8-2.71Z"/>
        <path class="cls-3" d="M110.68,20.63c-.36-.62-.6-1.28-.73-1.96-.13-.68-.24-1.53-.33-2.55l-.11-1.12c-.02-.12-.05-.46-.11-1.01-.06-.55-.09-1.1-.09-1.65,0-2.73.87-4.1,2.6-4.1.83.01,1.4.37,1.7,1.07.3.7.44,1.59.44,2.66,0,.5-.02,1.04-.05,1.62l-.02.98c-.03.46-.05.81-.05,1.07,0,1.02.12,1.82.36,2.41.14.35.31.62.54.82s.45.3.69.3c.42,0,.77-.27,1.02-.8.24-.52.4-1.06.46-1.63.06-.57.09-1.3.09-2.2,0-.21-.02-.47-.05-.79-.03-.31-.05-.54-.07-.7-.09-.7-.14-1.22-.14-1.57,0-.39.05-.76.14-1.09.12-.38.32-.7.6-.96.28-.26.6-.39.95-.39.32,0,.62.12.91.36.35.3.57.7.65,1.18.08.49.12,1.08.1,1.78.03.76.05,1.39.05,1.89,0,1.41-.11,2.69-.33,3.84-.22,1.15-.63,2.07-1.22,2.77-.42.52-1.03.92-1.82,1.22s-1.61.44-2.46.44-1.59-.16-2.21-.48c-.65-.33-1.16-.81-1.51-1.43Z"/>
        <path class="cls-3" d="M121.05,17.76l.02-1.55c.01-.33.02-.83.02-1.5,0-.46,0-.79-.02-1,0-.24,0-.46-.02-.65-.01-.19-.03-.36-.04-.51-.06-.73-.09-1.3-.09-1.71,0-1.34.24-2.35.73-3.03.41-.55,1.02-.93,1.82-1.15.8-.22,1.69-.33,2.64-.33.42,0,.74,0,.93.02,1.06.06,2.04.29,2.94.7.9.4,1.58,1.01,2.05,1.83.67,1.14,1,2.4,1,3.78,0,1.31-.27,2.6-.81,3.89-.54,1.29-1.25,2.4-2.13,3.33-.36.38-.91.78-1.64,1.2-.73.42-1.52.77-2.37,1.05-.85.28-1.62.42-2.32.42-1.47,0-2.31-.65-2.53-1.94-.12-.83-.18-1.78-.18-2.85ZM127.2,16.79c.38-.39.71-.84,1-1.37.29-.52.47-.95.55-1.29.03-.12.05-.29.05-.5,0-.59-.21-1.11-.62-1.55-.41-.44-.93-.73-1.55-.87-.3-.06-.49-.09-.57-.09-.35,0-.58.12-.71.35-.12.24-.18.58-.18,1.04l.02,1.16-.04.66c-.05.73-.07,1.14-.07,1.23,0,1.2.33,1.8.98,1.8.38,0,.76-.19,1.14-.58Z"/>
        <path class="cls-3" d="M136.63,22.52l-.59.02c-.8,0-1.39-.18-1.75-.55-.38-.38-.57-.97-.57-1.78,0-.24.01-.58.04-1,.03-.24.05-.42.05-.52l.18-3.89c.09-2.03.15-3.56.18-4.58.01-.18.02-.34.01-.49,0-.14-.01-.27-.01-.38v-.48c0-.64.06-1.12.18-1.46.29-.83,1.28-1.25,2.96-1.25.55,0,1.13.04,1.76.11.63.08,1.17.15,1.61.23.49.08.88.16,1.17.26s.55.27.75.52c.21.25.31.6.31,1.06,0,.38-.1.72-.3,1.01s-.47.51-.82.65c-.18.08-.41.11-.68.11-.18,0-.46-.03-.82-.09-.33-.06-.59-.09-.77-.09-.11,0-.25.01-.43.04-.2.03-.39.16-.57.39-.18.23-.27.47-.27.73s.11.47.34.64c.18.12.46.18.84.18.17,0,.4-.01.71-.04l.71-.02c.27,0,.49.03.66.09.38.15.65.35.82.58.17.24.27.56.3.97.02.09.02.24.02.43,0,.46-.09.86-.27,1.22-.18.36-.47.6-.87.72-.15.03-.28.04-.39.04-.14,0-.29-.01-.47-.04s-.3-.05-.38-.07c-.3-.08-.58-.11-.84-.11-.35,0-.62.1-.82.3-.26.24-.39.48-.39.71,0,.35.25.64.75.87s.98.36,1.44.39c.17.01.32.02.46.01.14,0,.25-.01.34-.01.14-.02.34-.02.61-.02.76,0,1.33.14,1.71.41.36.29.55.75.55,1.39,0,.49-.08.92-.23,1.3-.21.52-.51.86-.89,1.04s-.91.28-1.59.33c-.47.03-.88.05-1.23.06-.35,0-.64.01-.87.01-.47,0-1.18.01-2.12.04-.23,0-.4,0-.52.02Z"/>
        <path class="cls-3" d="M144.76,19.22c0-.44.03-.99.09-1.66.03-.39.05-.67.05-.82.01-.23.02-.63.02-1.21.01-1.14.06-2.11.14-2.92s.25-1.57.52-2.3.68-1.23,1.23-1.5c.29-.15.6-.23.93-.23.5,0,.99.16,1.46.48.47.32.84.71,1.12,1.18.27.44.64,1.13,1.09,2.07.42.96.82,1.72,1.18,2.28l-.07-.8c-.08-.88-.11-1.46-.11-1.73,0-1.2.26-2.06.77-2.6.38-.39.81-.59,1.3-.59.41,0,.77.14,1.08.43.31.29.5.68.56,1.16.27,1.82.41,3.46.41,4.92,0,2.26-.3,4.03-.91,5.31-.43.91-.94,1.37-1.55,1.37-.74,0-1.5-.52-2.28-1.56s-1.59-2.33-2.46-3.86l-.46-.8-.14.71c-.27,1.56-.6,2.95-.99,4.17-.39,1.21-.88,1.82-1.49,1.82-.24,0-.5-.14-.77-.43-.49-.53-.73-1.5-.73-2.89Z"/>
        <path class="cls-3" d="M160.72,19.83l.02-.57c.02-.61.04-1.13.07-1.58.03-.45.05-.82.07-1.1.11-1.49.16-2.78.16-3.87,0-.47,0-.83-.02-1.07-.46.03-.83.05-1.14.05-.59,0-1.1-.08-1.53-.24-.43-.16-.74-.46-.96-.9-.12-.23-.18-.49-.18-.8,0-.33.08-.64.25-.92.17-.28.41-.5.73-.65.26-.12.63-.18,1.12-.18.36,0,1.02.07,1.98.21.42.06.82.11,1.18.14.18.02.46.02.84.02.83,0,1.48.02,1.92.06.45.04.88.16,1.31.35.29.14.53.35.73.63.2.28.3.57.3.88s-.09.55-.27.77c-.33.42-1.07.64-2.21.64l-1.05-.02.11.71c.18,1.14.33,2.14.43,3.02s.16,1.76.16,2.68c0,2.98-.74,4.47-2.23,4.49-1.2.01-1.8-.89-1.8-2.71Z"/>
        <path class="cls-3" d="M175.09,21.94c-.5-.16-.89-.44-1.16-.83-.21-.3-.32-.62-.32-.93,0-.39.17-.72.51-.99.34-.26.76-.39,1.24-.38.29,0,.68.1,1.18.3.64.21,1.1.32,1.39.32.47,0,.83-.21,1.09-.64.14-.23.21-.43.21-.61,0-.36-.17-.69-.52-.97s-.78-.55-1.3-.81c-2.09-1.02-3.14-2.57-3.14-4.67,0-.3.02-.62.07-.93.18-1.29.7-2.41,1.56-3.36.86-.95,1.92-1.61,3.18-1.97.64-.2,1.28-.3,1.94-.3.8,0,1.46.17,1.98.5.26.15.47.37.64.65.17.28.25.56.25.83,0,.23-.07.44-.22.63s-.36.33-.65.42c-.99.3-1.86.77-2.61,1.39-.75.62-1.13,1.29-1.13,2s.38,1.37,1.14,2c.35.29.66.52.93.71.52.39.92.73,1.21,1.01.29.28.53.63.73,1.06.29.62.43,1.27.43,1.96,0,.61-.11,1.18-.34,1.73-.37.9-.95,1.53-1.77,1.91-.81.38-1.75.57-2.81.57-.61,0-1.18-.05-1.73-.14-.82-.15-1.48-.31-1.98-.47Z"/>
        <path class="cls-3" d="M184.96,21.25c-.31-.86-.44-1.8-.4-2.83.06-1.21.09-2.59.09-4.12.03-1.82.07-3.19.11-4.1.01-.17.02-.41.02-.73.03-.85.09-1.53.18-2.04.09-.51.31-.94.66-1.3.35-.36.89-.55,1.62-.58,1.87-.06,3.55.22,5.04.84,1.5.62,2.34,1.74,2.54,3.35.01.09.02.23.02.41,0,.79-.26,1.51-.77,2.16-.52.65-1.18,1.23-2,1.73-.17.11-.38.21-.64.31s-.42.16-.5.19-.28.11-.62.24-.61.28-.82.47c-.32.27-.53.64-.63,1.1-.1.46-.15,1.01-.15,1.65v.68c0,.8-.02,1.44-.07,1.91-.04.47-.21.91-.5,1.32-.29.41-.76.62-1.41.62-.88,0-1.48-.43-1.79-1.29ZM191.3,10.72c0-.4-.1-.78-.31-1.16-.21-.38-.47-.66-.81-.84-.21-.11-.4-.16-.55-.16-.41,0-.62.43-.62,1.28l.02.82c.01.15.02.35.02.59-.03.39-.05.65-.05.75,0,.21.03.37.1.47.07.1.19.15.35.15.12,0,.32-.04.59-.11.82-.27,1.23-.87,1.23-1.78Z"/>
        <path class="cls-3" d="M198.11,22.52l-.59.02c-.8,0-1.39-.18-1.75-.55-.38-.38-.57-.97-.57-1.78,0-.24.01-.58.04-1,.03-.24.05-.42.05-.52l.18-3.89c.09-2.03.15-3.56.18-4.58.01-.18.02-.34.01-.49,0-.14-.01-.27-.01-.38v-.48c0-.64.06-1.12.18-1.46.29-.83,1.28-1.25,2.96-1.25.55,0,1.13.04,1.76.11.63.08,1.17.15,1.61.23.49.08.88.16,1.17.26s.55.27.75.52c.21.25.31.6.31,1.06,0,.38-.1.72-.3,1.01s-.47.51-.82.65c-.18.08-.41.11-.68.11-.18,0-.46-.03-.82-.09-.33-.06-.59-.09-.77-.09-.11,0-.25.01-.43.04-.2.03-.39.16-.57.39-.18.23-.27.47-.27.73s.11.47.34.64c.18.12.46.18.84.18.17,0,.4-.01.71-.04l.71-.02c.27,0,.49.03.66.09.38.15.65.35.82.58.17.24.27.56.3.97.02.09.02.24.02.43,0,.46-.09.86-.27,1.22-.18.36-.47.6-.87.72-.15.03-.28.04-.39.04-.14,0-.29-.01-.47-.04s-.3-.05-.38-.07c-.3-.08-.58-.11-.84-.11-.35,0-.62.1-.82.3-.26.24-.39.48-.39.71,0,.35.25.64.75.87s.98.36,1.44.39c.17.01.32.02.46.01.14,0,.25-.01.34-.01.14-.02.34-.02.61-.02.76,0,1.33.14,1.71.41.36.29.55.75.55,1.39,0,.49-.08.92-.23,1.3-.21.52-.51.86-.89,1.04s-.91.28-1.59.33c-.47.03-.88.05-1.23.06-.35,0-.64.01-.87.01-.47,0-1.18.01-2.12.04-.23,0-.4,0-.52.02Z"/>
        <path class="cls-3" d="M208.39,20.65c-.77-.73-1.34-1.59-1.72-2.6-.29-.8-.43-1.62-.43-2.46,0-1.11.24-2.17.72-3.2.48-1.02,1.15-1.92,2-2.69s1.83-1.33,2.9-1.7c.91-.3,1.71-.46,2.41-.46,1.4,0,2.1.65,2.1,1.94,0,.62-.18,1.13-.54,1.53-.36.39-.78.7-1.28.92-.49.22-1.13.45-1.92.69l-.68.21c-.46.43-.83.89-1.12,1.4-.29.51-.43,1-.43,1.47,0,.82.47,1.43,1.41,1.82.23.11.5.19.81.25.31.06.61.11.9.16.55.08.98.16,1.3.26s.58.28.8.54.32.63.32,1.12c0,.94-.28,1.62-.84,2.05-.56.42-1.28.64-2.14.64-.62,0-1.25-.1-1.89-.3-1.02-.33-1.91-.87-2.68-1.59Z"/>
        <path class="cls-3" d="M217.06,7.6c0-.59.21-1.15.63-1.69.42-.53.91-.88,1.49-1.05.15-.03.3-.05.43-.05.46,0,.9.1,1.32.31s.64.49.64.85c0,.05-.02.13-.05.25.06.17.09.35.09.55,0,.46-.14.9-.43,1.33-.29.43-.65.79-1.09,1.06s-.88.41-1.32.41c-.38,0-.71-.11-1-.34-.29-.23-.5-.58-.64-1.07-.05-.18-.07-.37-.07-.57ZM219.2,22.54c-.33,0-.64-.11-.92-.33s-.51-.5-.69-.85c-.35-.76-.52-1.81-.52-3.17,0-.67.07-1.74.21-3.21.03-.2.06-.53.09-1l.05-.48c.04-.68.12-1.26.22-1.73.1-.47.28-.84.54-1.12.3-.32.65-.48,1.02-.48s.71.13,1.04.39c.33.26.58.58.76.96.44.97.66,2.18.66,3.62,0,1.37-.2,3.02-.59,4.96-.02.09-.06.3-.13.64s-.17.63-.3.88c-.13.25-.3.45-.51.6-.3.21-.61.32-.91.32Z"/>
        <path class="cls-3" d="M222.64,21.66c-.21-.34-.32-.77-.32-1.29,0-.61.16-1.45.48-2.53l.18-.68c.46-1.91,1.11-4.14,1.96-6.7.33-1,.8-1.78,1.39-2.33s1.39-.85,2.39-.88c.62-.01,1.13.15,1.54.5.4.35.71.77.93,1.25.22.49.46,1.13.72,1.94l.27.89,2.66,7.49c.18.5.27.89.27,1.16,0,.5-.24.94-.71,1.32-.41.32-.8.48-1.16.48-.47,0-.87-.25-1.21-.75-.12-.15-.22-.36-.31-.64s-.13-.44-.15-.5c-.12-.38-.24-.69-.34-.93-.11-.24-.24-.43-.39-.57-.03-.03-.34-.07-.93-.11-.59-.04-1.14-.07-1.64-.07-.64,0-1,.04-1.09.11-.15.14-.27.33-.34.57-.08.24-.15.57-.23.98-.08.39-.15.71-.22.94-.07.24-.16.43-.29.58-.33.42-.83.64-1.5.64-.32,0-.62-.05-.89-.14-.52-.15-.88-.4-1.09-.74ZM229.47,15.37c-.32-.94-.52-1.55-.59-1.82l-.64,2.05,1.23-.23Z"/>
        <path class="cls-3" d="M242.52,22.54c-.58,0-1.43-.1-2.55-.3l-.52-.09c-1.06-.17-1.89-.5-2.49-1.01s-.94-1.26-1.04-2.27c-.08-.74-.11-1.66-.11-2.76,0-.71.01-1.74.04-3.07v-.71c0-1,.06-1.88.19-2.63.13-.75.41-1.38.83-1.88.42-.52.93-.77,1.5-.77.41,0,.79.14,1.14.42.35.28.6.67.75,1.17.27.81.41,1.81.41,3.03,0,.53-.03,1.31-.09,2.35l-.07,1.14c0,.11-.02.28-.05.52-.04.24-.07.5-.07.77,0,.14,0,.24.02.3.01.11.03.25.06.42.02.17.12.26.28.26s.33.01.48.04c.23.05.58.08,1.07.11.5.03.9.08,1.2.14s.6.19.9.39c.33.21.58.5.75.85s.25.74.25,1.15-.09.82-.28,1.18c-.19.36-.47.65-.85.87-.42.24-1.01.36-1.75.36Z"/>
      </g>
    </g>
  </g>
</svg>