<?xml version="1.0" encoding="UTF-8"?>
<svg id="Layer_2" xmlns="http://www.w3.org/2000/svg" xmlns:xlink="http://www.w3.org/1999/xlink" viewBox="0 0 333.05 28.59">
  <defs>
    <style>
      .cls-1 {
        filter: url(#drop-shadow-1);
      }

      .cls-2 {
        isolation: isolate;
      }

      .cls-3 {
        fill: #1861ad;
      }

      .cls-4 {
        stroke-miterlimit: 10;
      }

      .cls-4, .cls-5 {
        fill: #e9e9da;
        stroke: #1861ad;
        stroke-width: 2px;
      }
    </style>
    <filter id="drop-shadow-1" x="-8.1" y="-8.04" width="363.36" height="58.8" filterUnits="userSpaceOnUse">
      <feOffset dx="7" dy="7"/>
      <feGaussianBlur result="blur" stdDeviation="5"/>
      <feFlood flood-color="#231f20" flood-opacity=".2"/>
      <feComposite in2="blur" operator="in"/>
      <feComposite in="SourceGraphic"/>
    </filter>
  </defs>
  <g id="Layer_1-2" data-name="Layer_1">
    <g>
      <g id="Rectangle_37" class="cls-1">
        <rect class="cls-4" x="1" y="1" width="331.05" height="26.59" rx="5.47" ry="5.47"/>
        <rect class="cls-5" x="1.13" y="1.13" width="330.79" height="26.33" rx="5.34" ry="5.34"/>
      </g>
      <g class="cls-2">
        <path class="cls-3" d="M101.47,20.85c-.21-.49-.33-1.12-.36-1.88-.05-.67-.07-1.34-.07-2-.03-1.37-.09-2.4-.18-3.1l-.52.55c-.58.64-1.09,1.13-1.53,1.48-.44.35-.9.52-1.39.52-.52,0-.96-.23-1.34-.69-.38-.46-.78-1.1-1.21-1.9-.23-.44-.37-.7-.43-.77-.2.46-.33.94-.4,1.45-.07.51-.12,1.16-.15,1.95-.03,1-.11,1.83-.23,2.49-.12.66-.39,1.26-.8,1.81-.36.49-.79.73-1.28.73s-.89-.25-1.25-.75c-.35-.53-.52-1.2-.52-2,0-.36.05-.88.14-1.55l.07-.57c.12-1.26.36-3.07.73-5.44l.07-.57c.11-.7.21-1.24.31-1.64.1-.39.28-.75.54-1.07.47-.56.99-.84,1.57-.84.73,0,1.46.35,2.2,1.06.74.71,1.41,1.5,2.02,2.38.67-1.05,1.34-1.95,2.03-2.7.68-.75,1.41-1.13,2.19-1.13.5,0,.96.19,1.39.57.32.27.54.62.67,1.02.13.41.24.93.33,1.57.03.09.06.26.09.5.33,1.91.53,3.6.59,5.06.03.36.05.8.05,1.3,0,1.31-.14,2.45-.41,3.44-.27.99-.79,1.48-1.55,1.48-.68,0-1.13-.25-1.34-.74Z"/>
        <path class="cls-3" d="M110.64,21.59c-.74,0-1.43-.14-2.07-.41-.7-.3-1.22-.73-1.56-1.29-.34-.55-.65-1.3-.92-2.24-.42-1.44-.64-2.75-.64-3.94,0-1.31.27-2.44.81-3.39.54-.96,1.43-1.65,2.68-2.09.68-.26,1.4-.39,2.16-.39,1.2,0,2.24.36,3.11,1.07.87.71,1.43,1.71,1.67,2.98.15.84.23,1.66.23,2.48,0,1.58-.27,3-.81,4.27-.54,1.27-1.41,2.13-2.61,2.58-.68.24-1.37.36-2.05.36ZM111.1,18.77c.36,0,.68-.16.96-.47.27-.31.48-.71.61-1.2.21-.85.32-1.7.32-2.55,0-1.32-.3-2.15-.89-2.48-.18-.09-.36-.14-.55-.14-.42,0-.85.17-1.29.51-.43.34-.71.69-.83,1.06-.17.5-.25,1.16-.25,1.98,0,.58.06,1.1.17,1.58.11.48.29.84.54,1.08.41.41.81.62,1.21.62Z"/>
        <path class="cls-3" d="M116.79,18.27c0-.44.03-.99.09-1.66.03-.39.05-.67.05-.82.02-.23.02-.63.02-1.21.02-1.14.06-2.11.14-2.92s.25-1.57.52-2.3c.27-.73.68-1.23,1.23-1.5.29-.15.6-.23.93-.23.5,0,.99.16,1.46.48.47.32.84.71,1.12,1.18.27.44.64,1.13,1.09,2.07.42.96.82,1.72,1.18,2.28l-.07-.8c-.08-.88-.11-1.46-.11-1.73,0-1.2.26-2.06.77-2.6.38-.39.81-.59,1.3-.59.41,0,.77.14,1.08.43.31.29.5.68.56,1.16.27,1.82.41,3.46.41,4.92,0,2.26-.3,4.03-.91,5.31-.42.91-.94,1.37-1.55,1.37-.74,0-1.5-.52-2.28-1.56-.77-1.04-1.59-2.33-2.46-3.86l-.46-.8-.14.71c-.27,1.56-.6,2.95-.99,4.17-.39,1.21-.88,1.82-1.49,1.82-.24,0-.5-.14-.77-.43-.49-.53-.73-1.5-.73-2.89Z"/>
        <path class="cls-3" d="M132.76,18.88l.02-.57c.02-.61.04-1.13.07-1.58.03-.45.05-.82.07-1.1.11-1.49.16-2.78.16-3.87,0-.47,0-.83-.02-1.07-.46.03-.83.04-1.14.04-.59,0-1.1-.08-1.53-.24-.42-.16-.74-.46-.96-.9-.12-.23-.18-.49-.18-.8,0-.33.08-.64.25-.92.17-.28.41-.5.73-.65.26-.12.63-.18,1.12-.18.36,0,1.02.07,1.98.2.42.06.82.11,1.18.14.18.02.46.02.84.02.83,0,1.48.02,1.92.06.45.04.88.16,1.31.35.29.14.53.35.73.63.2.28.3.57.3.88s-.09.55-.27.77c-.33.43-1.07.64-2.21.64l-1.05-.02.11.71c.18,1.14.33,2.14.43,3.02.11.87.16,1.77.16,2.68,0,2.98-.74,4.47-2.23,4.49-1.2.02-1.8-.89-1.8-2.71Z"/>
        <path class="cls-3" d="M141.89,21.59c-.38,0-.74-.17-1.07-.52s-.54-.75-.62-1.21c-.12-.61-.18-1.23-.18-1.87,0-.39,0-.7.02-.91l.02-1c0-1.18-.02-2.35-.07-3.51-.03-1.55-.04-2.71-.04-3.48,0-.67.08-1.23.25-1.67.17-.45.52-.77,1.05-.97.38-.14.72-.21,1.02-.21,1.18,0,1.78,1.05,1.78,3.14,0,.49-.03.99-.08,1.5-.05.52-.09.83-.1.93l-.07.57c.17-.01.42-.02.75-.02l1.12.02c.24.02.61.02,1.09.02l-.14-.89c-.01-.09-.06-.42-.14-.98s-.11-1.1-.11-1.62c0-.56.06-1.05.18-1.48.14-.5.41-.94.83-1.32.42-.38.87-.57,1.36-.57.39,0,.75.14,1.07.41.49.41.73,1.63.73,3.67,0,1.73-.17,4.05-.52,6.97l-.11,1.16c-.03.64-.17,1.34-.43,2.09-.26.76-.61,1.14-1.05,1.14-.3,0-.61-.19-.93-.57-.46-.53-.68-1.34-.68-2.41,0-.26.04-.84.11-1.75l.07-.87c-.11.01-.26.03-.47.04-.21.02-.36.02-.47.02-.55.03-.98.07-1.31.11-.33.05-.58.12-.76.23-.15.09-.26.21-.32.36-.06.15-.09.33-.09.55l.02.82c0,.26,0,.46-.02.59,0,.73-.04,1.34-.12,1.82-.08.49-.28.89-.6,1.21-.3.29-.62.43-.96.43Z"/>
        <path class="cls-3" d="M158.06,21.59c-.58,0-1.43-.1-2.55-.3l-.52-.09c-1.06-.17-1.89-.5-2.49-1.01s-.94-1.26-1.04-2.27c-.08-.74-.11-1.66-.11-2.76,0-.71.01-1.74.04-3.07v-.71c0-1,.06-1.88.19-2.63.13-.75.41-1.38.83-1.88.42-.52.93-.77,1.5-.77.41,0,.79.14,1.14.42.35.28.6.67.75,1.17.27.8.41,1.81.41,3.03,0,.53-.03,1.31-.09,2.35l-.07,1.14c0,.11-.02.28-.05.52-.04.24-.07.5-.07.77,0,.14,0,.24.02.3.01.11.03.25.06.42.02.17.12.26.28.26s.33.01.48.04c.23.05.58.08,1.07.11.5.03.9.08,1.2.14s.6.19.9.39c.33.21.58.5.75.85s.25.74.25,1.15-.09.82-.28,1.18c-.19.36-.47.65-.85.87-.42.24-1.01.36-1.75.36Z"/>
        <path class="cls-3" d="M165.63,21.48c-.24.12-.5.18-.79.18-.35,0-.7-.09-1.06-.28-.36-.19-.65-.45-.88-.79-.36-.56-.55-1.43-.55-2.6,0-.46.03-1.09.09-1.91.01-.21.03-.46.04-.74.02-.28.02-.58.02-.9s0-.52-.02-.66c-.04-.44-.16-.85-.35-1.24-.19-.39-.47-.88-.85-1.49-.35-.59-.61-1.05-.77-1.38s-.3-.68-.39-1.06c-.06-.23-.09-.47-.09-.73,0-.53.14-.98.43-1.34.29-.36.67-.55,1.16-.55.32,0,.66.09,1.02.27.5.26.89.63,1.16,1.1.27.48.55,1.13.82,1.95.24.67.4,1.09.48,1.28.11-.17.27-.48.5-.93.49-.96.94-1.72,1.37-2.29s.92-.85,1.48-.85c.23,0,.46.05.68.16.49.23.73.65.73,1.25,0,.53-.22,1.28-.66,2.23-.3.62-.79,1.43-1.46,2.44-.3.44-.51.79-.62,1.06s-.16.57-.16.9c0,.12.03.47.09,1.05.08.88.11,1.61.11,2.19,0,.71-.08,1.33-.23,1.84-.15.52-.42.96-.8,1.32-.12.23-.3.4-.54.52Z"/>
        <path class="cls-3" d="M176.31,20.31c-.31-.86-.44-1.8-.4-2.83.06-1.21.09-2.59.09-4.12.03-1.82.07-3.19.11-4.1.01-.17.02-.41.02-.73.03-.85.09-1.53.18-2.04.09-.51.31-.94.66-1.3.35-.36.89-.55,1.62-.58,1.87-.06,3.55.22,5.04.84,1.5.62,2.34,1.74,2.54,3.35.01.09.02.23.02.41,0,.79-.26,1.51-.77,2.16-.52.65-1.18,1.23-2,1.73-.17.11-.38.21-.64.31s-.42.16-.5.19c-.08.03-.28.11-.62.24s-.61.29-.82.47c-.32.27-.53.64-.63,1.1-.1.46-.15,1.01-.15,1.65v.68c0,.81-.02,1.44-.07,1.91-.04.47-.21.91-.5,1.32-.29.41-.76.61-1.41.61-.88,0-1.48-.43-1.79-1.29ZM182.65,9.77c0-.39-.1-.78-.31-1.16-.21-.38-.47-.66-.81-.84-.21-.11-.4-.16-.55-.16-.41,0-.62.43-.62,1.28l.02.82c.01.15.02.35.02.59-.03.4-.05.65-.05.75,0,.21.03.37.1.47s.19.15.35.15c.12,0,.32-.04.59-.11.82-.27,1.23-.87,1.23-1.78Z"/>
        <path class="cls-3" d="M186.86,20.72c-.21-.34-.32-.77-.32-1.29,0-.61.16-1.45.48-2.53l.18-.68c.46-1.91,1.11-4.14,1.96-6.7.33-1,.8-1.78,1.39-2.33.59-.55,1.39-.85,2.39-.88.62-.01,1.13.15,1.54.5.4.35.71.77.93,1.25.22.49.46,1.13.72,1.94l.27.89,2.66,7.49c.18.5.27.89.27,1.16,0,.5-.24.94-.71,1.32-.41.32-.8.48-1.16.48-.47,0-.87-.25-1.21-.75-.12-.15-.22-.36-.31-.64s-.13-.44-.15-.5c-.12-.38-.24-.69-.34-.93-.11-.24-.24-.43-.39-.57-.03-.03-.34-.07-.93-.11-.59-.05-1.14-.07-1.64-.07-.64,0-1,.04-1.09.11-.15.14-.27.33-.34.57-.08.24-.15.57-.23.98-.08.39-.15.71-.22.95-.07.24-.16.43-.29.58-.33.43-.83.64-1.5.64-.32,0-.62-.04-.89-.14-.52-.15-.88-.4-1.09-.74ZM193.69,14.42c-.32-.94-.52-1.55-.59-1.82l-.64,2.05,1.23-.23Z"/>
        <path class="cls-3" d="M201.51,20.99c-.5-.16-.89-.44-1.16-.83-.21-.3-.32-.61-.32-.93,0-.39.17-.72.51-.99.34-.27.76-.39,1.24-.38.29,0,.68.1,1.18.3.64.21,1.1.32,1.39.32.47,0,.83-.21,1.09-.64.14-.23.21-.43.21-.62,0-.36-.17-.69-.52-.97-.35-.28-.78-.55-1.3-.81-2.09-1.02-3.14-2.57-3.14-4.67,0-.3.02-.62.07-.93.18-1.29.7-2.41,1.56-3.36.86-.95,1.92-1.61,3.18-1.97.64-.2,1.28-.3,1.94-.3.8,0,1.46.17,1.98.5.26.15.47.37.64.65.17.28.25.56.25.83,0,.23-.07.44-.22.63-.14.19-.36.33-.65.42-.99.3-1.86.77-2.61,1.39-.75.62-1.13,1.29-1.13,2s.38,1.37,1.14,2c.35.29.66.52.93.71.52.39.92.73,1.21,1.01.29.28.53.63.73,1.06.29.62.43,1.28.43,1.96,0,.61-.11,1.18-.34,1.73-.37.9-.95,1.53-1.77,1.91-.81.38-1.75.57-2.81.57-.61,0-1.18-.04-1.73-.14-.82-.15-1.48-.31-1.98-.47Z"/>
        <path class="cls-3" d="M212.46,20.99c-.5-.16-.89-.44-1.16-.83-.21-.3-.32-.61-.32-.93,0-.39.17-.72.51-.99.34-.27.76-.39,1.24-.38.29,0,.68.1,1.18.3.64.21,1.1.32,1.39.32.47,0,.83-.21,1.09-.64.14-.23.21-.43.21-.62,0-.36-.17-.69-.52-.97-.35-.28-.78-.55-1.3-.81-2.09-1.02-3.14-2.57-3.14-4.67,0-.3.02-.62.07-.93.18-1.29.7-2.41,1.56-3.36.86-.95,1.92-1.61,3.18-1.97.64-.2,1.28-.3,1.94-.3.8,0,1.46.17,1.98.5.26.15.47.37.64.65.17.28.25.56.25.83,0,.23-.07.44-.22.63-.14.19-.36.33-.65.42-.99.3-1.86.77-2.61,1.39-.75.62-1.13,1.29-1.13,2s.38,1.37,1.14,2c.35.29.66.52.93.71.52.39.92.73,1.21,1.01.29.28.53.63.73,1.06.29.62.43,1.28.43,1.96,0,.61-.11,1.18-.34,1.73-.37.9-.95,1.53-1.77,1.91-.81.38-1.75.57-2.81.57-.61,0-1.18-.04-1.73-.14-.82-.15-1.48-.31-1.98-.47Z"/>
        <path class="cls-3" d="M224.85,21.57l-.59.02c-.8,0-1.39-.18-1.75-.55s-.57-.97-.57-1.78c0-.24.01-.58.04-1,.03-.24.05-.42.05-.52l.18-3.89c.09-2.03.15-3.56.18-4.58.01-.18.02-.35.01-.49,0-.14-.01-.27-.01-.38v-.48c0-.64.06-1.12.18-1.46.29-.83,1.28-1.25,2.96-1.25.55,0,1.13.04,1.76.11s1.17.15,1.61.23c.49.08.88.16,1.17.26s.55.27.75.52c.21.25.31.6.31,1.06,0,.38-.1.72-.3,1.01s-.47.51-.82.65c-.18.08-.41.11-.68.11-.18,0-.46-.03-.82-.09-.33-.06-.59-.09-.77-.09-.11,0-.25.02-.43.05-.2.03-.39.16-.57.39-.18.23-.27.47-.27.73s.11.47.34.64c.18.12.46.18.84.18.17,0,.4-.02.71-.05l.71-.02c.27,0,.49.03.66.09.38.15.65.35.82.58s.27.56.3.97c.02.09.02.24.02.43,0,.46-.09.86-.27,1.22-.18.36-.47.6-.87.72-.15.03-.28.04-.39.04-.14,0-.29-.01-.47-.04s-.3-.05-.38-.07c-.3-.08-.58-.11-.84-.11-.35,0-.62.1-.82.3-.26.24-.39.48-.39.71,0,.35.25.64.75.87.5.23.98.36,1.44.39.17.02.32.02.46.01s.25-.01.34-.01c.14-.01.34-.02.61-.02.76,0,1.33.14,1.71.41.36.29.55.75.55,1.39,0,.49-.08.92-.23,1.3-.21.52-.51.86-.89,1.04s-.91.28-1.59.33c-.47.03-.88.05-1.23.06-.35,0-.64.01-.87.01-.47,0-1.18.02-2.12.05-.23,0-.4,0-.52.02Z"/>
        <path class="cls-3" d="M234.46,20.99c-.5-.16-.89-.44-1.16-.83-.21-.3-.32-.61-.32-.93,0-.39.17-.72.51-.99.34-.27.76-.39,1.24-.38.29,0,.68.1,1.18.3.64.21,1.1.32,1.39.32.47,0,.83-.21,1.09-.64.14-.23.21-.43.21-.62,0-.36-.17-.69-.52-.97-.35-.28-.78-.55-1.3-.81-2.09-1.02-3.14-2.57-3.14-4.67,0-.3.02-.62.07-.93.18-1.29.7-2.41,1.56-3.36.86-.95,1.92-1.61,3.18-1.97.64-.2,1.28-.3,1.94-.3.8,0,1.46.17,1.98.5.26.15.47.37.64.65.17.28.25.56.25.83,0,.23-.07.44-.22.63-.14.19-.36.33-.65.42-.99.3-1.86.77-2.61,1.39-.75.62-1.13,1.29-1.13,2s.38,1.37,1.14,2c.35.29.66.52.93.71.52.39.92.73,1.21,1.01.29.28.53.63.73,1.06.29.62.43,1.28.43,1.96,0,.61-.11,1.18-.34,1.73-.37.9-.95,1.53-1.77,1.91-.81.38-1.75.57-2.81.57-.61,0-1.18-.04-1.73-.14-.82-.15-1.48-.31-1.98-.47Z"/>
      </g>
    </g>
  </g>
</svg>