<?xml version="1.0" encoding="UTF-8"?>
<svg id="Layer_2" xmlns="http://www.w3.org/2000/svg" xmlns:xlink="http://www.w3.org/1999/xlink" viewBox="0 0 175.2 107.04">
  <defs>
    <style>
      .cls-1 {
        fill: #e9e9da;
      }

      .cls-2 {
        filter: url(#drop-shadow-3);
      }

      .cls-3, .cls-4 {
        isolation: isolate;
      }

      .cls-5 {
        fill: none;
        filter: url(#drop-shadow-2);
        stroke: #e9e9da;
        stroke-miterlimit: 10;
        stroke-width: 2px;
      }

      .cls-4 {
        filter: url(#drop-shadow-1);
      }
    </style>
    <filter id="drop-shadow-1" x="22.8" y="18" width="129.6" height="41.76" filterUnits="userSpaceOnUse">
      <feOffset dx="7" dy="7"/>
      <feGaussianBlur result="blur" stdDeviation="5"/>
      <feFlood flood-color="#231f20" flood-opacity=".2"/>
      <feComposite in2="blur" operator="in"/>
      <feComposite in="SourceGraphic"/>
    </filter>
    <filter id="drop-shadow-2" x="0" y="0" width="175.2" height="107.04" filterUnits="userSpaceOnUse">
      <feOffset dx="7" dy="7"/>
      <feGaussianBlur result="blur-2" stdDeviation="5"/>
      <feFlood flood-color="#231f20" flood-opacity=".2"/>
      <feComposite in2="blur-2" operator="in"/>
      <feComposite in="SourceGraphic"/>
    </filter>
    <filter id="drop-shadow-3" x="60" y="47.04" width="55.2" height="44.4" filterUnits="userSpaceOnUse">
      <feOffset dx="7" dy="7"/>
      <feGaussianBlur result="blur-3" stdDeviation="5"/>
      <feFlood flood-color="#231f20" flood-opacity=".2"/>
      <feComposite in2="blur-3" operator="in"/>
      <feComposite in="SourceGraphic"/>
    </filter>
  </defs>
  <g id="Layer_1-2" data-name="Layer_1">
    <g>
      <g id="INTRO" class="cls-4">
        <g class="cls-3">
          <path class="cls-1" d="M30.94,26.4h7.26c2.94,0,4.54,1.35,4.54,3.52,0,1.92-.95,3.39-3.58,3.6l4.33,3.83h-3.8l-4.3-3.83h-1.8v3.83h-2.64v-10.95ZM38.54,31.09c1.17,0,1.49-.28,1.49-1.19,0-.75-.72-1.06-1.75-1.06h-4.69v2.25h4.96Z"/>
          <path class="cls-1" d="M45.69,26.4h10.59v2.44h-7.95v1.81h7.29v2.44h-7.29v1.83h7.95v2.42h-10.59v-10.95Z"/>
          <path class="cls-1" d="M64.14,30.66h6.58v6.69h-1.72l-.33-.56c-1.05.53-2.27.77-3.54.77-3.63,0-5.91-1.86-6.49-4.43-.11-.41-.17-.85-.17-1.25s.06-.84.17-1.25c.58-2.55,2.88-4.43,6.49-4.43,2.14,0,4.07.7,5.29,2.03l.12.17-2.19,1.55-.2-.2c-.74-.7-1.83-1.13-3.02-1.13-2.38,0-3.93,1.49-3.93,3.25s1.53,3.24,3.93,3.24c1.17,0,2.22-.38,2.94-1.03v-.99h-3.94v-2.44Z"/>
          <path class="cls-1" d="M75.57,26.4v5.65c0,1.97,1.71,3.11,3.52,3.11s3.47-1.14,3.47-3.11v-5.65h2.63v5.54c0,2.94-1.5,5.66-6.1,5.66s-6.16-2.71-6.16-5.66v-5.54h2.64Z"/>
          <path class="cls-1" d="M87.4,26.4h2.64v8.52l8.63-.02v2.42l-11.28.02v-10.95Z"/>
          <path class="cls-1" d="M107.42,26.4h1.6l6.54,10.95h-3.03l-1.28-2.16h-6.04l-1.3,2.16h-3.02l6.54-10.95ZM109.78,32.75l-1.56-2.63-1.56,2.63h3.13Z"/>
          <path class="cls-1" d="M117.76,26.4h7.26c2.94,0,4.54,1.35,4.54,3.52,0,1.92-.95,3.39-3.58,3.6l4.33,3.83h-3.8l-4.3-3.83h-1.8v3.83h-2.64v-10.95ZM125.36,31.09c1.17,0,1.49-.28,1.49-1.19,0-.75-.72-1.06-1.75-1.06h-4.69v2.25h4.96Z"/>
        </g>
      </g>
      <rect id="Rectangle_27" class="cls-5" x="9.23" y="9.08" width="142.78" height="74.79" rx="5.3" ry="5.3"/>
      <g class="cls-2">
        <path class="cls-1" d="M70.36,69.22c-.15-.1-.26-.23-.32-.4-.04-.16-.06-.3-.06-.43,0-.08.01-.18.04-.31.06-.13.1-.22.1-.27,0-.13-.1-.18-.29-.16-.16-.09-.36-.18-.6-.27-.23-.08-.42-.16-.57-.24-.14-.08-.26-.22-.35-.42-.08-.16-.12-.32-.12-.49,0-.23.07-.43.22-.59s.35-.24.61-.24c.16,0,.31.04.47.13.16.08.25.14.29.17.29.19.53.29.72.29.16,0,.31-.06.47-.18.21-.16.31-.33.31-.52,0-.26-.19-.53-.56-.8l-.49-.33c-.27-.17-.49-.32-.66-.47-.17-.14-.3-.33-.39-.56-.06-.22-.1-.42-.1-.58,0-.48.15-.88.45-1.21.06-.08.13-.14.2-.19.07-.04.11-.07.13-.09.09-.06.15-.13.19-.19.03-.06.05-.19.05-.37,0-.09-.02-.22-.05-.38-.03-.16-.05-.28-.05-.36,0-.14.03-.27.1-.39.1-.18.29-.35.55-.5s.51-.23.74-.23c.13,0,.24.03.33.08.23.12.35.32.35.62,0,.19-.05.43-.15.7s-.16.46-.19.56c.45,0,.91.09,1.35.25.45.17.67.44.67.82,0,.16-.06.32-.19.51-.13.18-.27.29-.43.33-.1.03-.18.04-.21.04-.1,0-.2-.03-.28-.08-.08-.05-.17-.12-.25-.19-.08-.08-.15-.14-.2-.19-.17-.13-.38-.19-.62-.19-.39,0-.58.16-.58.49,0,.17.07.31.21.43s.34.25.6.39c.19.1.31.17.35.21.3.21.52.47.67.78.15.31.22.64.22.99,0,.58-.18,1.11-.53,1.58-.05.08-.12.15-.21.23-.08.07-.15.12-.18.15-.16.1-.27.21-.35.31-.1.12-.16.22-.16.31,0,.05,0,.12.02.19.01.08.03.18.04.29,0,.32-.06.59-.19.81s-.34.32-.64.32c-.17,0-.33-.05-.48-.15Z"/>
        <path class="cls-1" d="M80.1,69.15c-1.09.14-1.97.21-2.63.21-1.58,0-2.56-.36-2.94-1.07-.13-.26-.19-.53-.19-.8,0-.55.23-1.07.68-1.59.45-.51,1.07-1.09,1.85-1.72.09-.08.24-.2.44-.36.2-.16.36-.3.48-.42.42-.42.76-.82,1.02-1.22.27-.4.4-.81.4-1.24,0-.29-.08-.56-.25-.82-.17-.26-.38-.39-.62-.39-.27,0-.47.09-.6.26-.13.17-.26.44-.39.81-.16.48-.32.8-.51.95-.26.25-.55.37-.86.37-.23,0-.44-.09-.62-.27-.18-.18-.3-.43-.35-.74-.03-.21-.04-.36-.04-.45,0-.83.31-1.59.92-2.27s1.34-1.17,2.17-1.47c.43-.14.83-.21,1.21-.21.53,0,1.03.12,1.48.35.45.23.81.57,1.08,1,.27.44.4.94.4,1.53,0,.65-.13,1.28-.39,1.89s-.64,1.34-1.13,2.18c-.44.78-.73,1.32-.88,1.62.08-.01.31-.06.71-.14s.78-.12,1.16-.12c.52,0,.89.12,1.11.35.25.26.37.66.37,1.19s-.1.97-.31,1.38c-.21.39-.49.66-.84.81-.35.15-.81.26-1.36.32l-.57.06Z"/>
        <path class="cls-1" d="M88.28,69.36c-.66,0-1.29-.18-1.87-.54s-1.09-.85-1.51-1.47c-.42-.62-.71-1.32-.87-2.08-.18-.84-.27-1.73-.27-2.67,0-1.22.18-2.37.53-3.45.35-1.08.9-1.97,1.64-2.69.42-.4.89-.72,1.41-.94.53-.23,1.06-.34,1.61-.34.32,0,.68.05,1.05.16.3.09.65.27,1.06.52.41.26.76.57,1.05.93.29.36.44.71.44,1.06,0,.13-.03.27-.1.43.4,1.79.6,3.3.6,4.54,0,2.43-.69,4.24-2.08,5.43-.86.74-1.75,1.11-2.69,1.11ZM87.93,65.63c.69,0,1.19-.86,1.5-2.57.13-.82.19-1.49.19-2.01,0-1.51-.39-2.4-1.17-2.69-.14-.05-.29-.08-.45-.08-.35,0-.63.16-.85.48-.21.32-.36.66-.45,1.02-.08.36-.17.81-.24,1.34-.12.79-.18,1.41-.18,1.85,0,1.12.29,1.9.86,2.34.29.21.55.31.78.31Z"/>
      </g>
    </g>
  </g>
</svg>