<?xml version="1.0" encoding="UTF-8"?>
<svg id="Layer_2" xmlns="http://www.w3.org/2000/svg" xmlns:xlink="http://www.w3.org/1999/xlink" viewBox="0 0 175.2 107.04">
  <defs>
    <style>
      .cls-1 {
        fill: #e9e9da;
      }

      .cls-2 {
        filter: url(#drop-shadow-3);
      }

      .cls-3, .cls-4 {
        isolation: isolate;
      }

      .cls-5 {
        fill: none;
        filter: url(#drop-shadow-1);
        stroke: #e9e9da;
        stroke-miterlimit: 10;
        stroke-width: 2px;
      }

      .cls-4 {
        filter: url(#drop-shadow-2);
      }
    </style>
    <filter id="drop-shadow-1" x="0" y="0" width="175.2" height="107.04" filterUnits="userSpaceOnUse">
      <feOffset dx="7" dy="7"/>
      <feGaussianBlur result="blur" stdDeviation="5"/>
      <feFlood flood-color="#231f20" flood-opacity=".2"/>
      <feComposite in2="blur" operator="in"/>
      <feComposite in="SourceGraphic"/>
    </filter>
    <filter id="drop-shadow-2" x="23.28" y="18.24" width="128.64" height="41.52" filterUnits="userSpaceOnUse">
      <feOffset dx="7" dy="7"/>
      <feGaussianBlur result="blur-2" stdDeviation="5"/>
      <feFlood flood-color="#231f20" flood-opacity=".2"/>
      <feComposite in2="blur-2" operator="in"/>
      <feComposite in="SourceGraphic"/>
    </filter>
    <filter id="drop-shadow-3" x="61.68" y="46.8" width="51.84" height="44.16" filterUnits="userSpaceOnUse">
      <feOffset dx="7" dy="7"/>
      <feGaussianBlur result="blur-3" stdDeviation="5"/>
      <feFlood flood-color="#231f20" flood-opacity=".2"/>
      <feComposite in2="blur-3" operator="in"/>
      <feComposite in="SourceGraphic"/>
    </filter>
  </defs>
  <g id="Layer_1-2" data-name="Layer_1">
    <g>
      <rect id="Rectangle_27" class="cls-5" x="9.2" y="9.13" width="142.78" height="74.79" rx="5.3" ry="5.3"/>
      <g id="INTRO" class="cls-4">
        <g class="cls-3">
          <path class="cls-1" d="M33.68,33.87l.22.19c.72.69,2.42,1.13,3.61,1.13.66,0,1.49-.03,2.17-.19.66-.17,1.08-.45,1.08-.99,0-.36-.31-.55-1.09-.67-.81-.12-1.89-.12-2.99-.2-2.19-.19-4.61-.7-4.61-3.32s2.64-3.55,5.55-3.55c2.03,0,4.47.96,5.83,2l.22.19-2.24,1.56-.2-.22c-.72-.69-2.39-1.09-3.61-1.09-.67,0-1.38.03-1.91.2-.5.14-.83.42-.83.97,0,.42.34.64,1.11.78.81.16,1.89.17,2.97.25,2.17.17,4.61.66,4.61,3.16,0,2.77-3.1,3.55-6.07,3.55-2.02,0-4.47-.96-5.83-2l-.23-.16,2.24-1.6Z"/>
          <path class="cls-1" d="M51.03,28.89h-5.15v-2.44h12.93v2.44h-5.15v8.51h-2.64v-8.51Z"/>
          <path class="cls-1" d="M63.67,26.45v5.65c0,1.97,1.7,3.11,3.52,3.11s3.47-1.14,3.47-3.11v-5.65h2.63v5.54c0,2.94-1.5,5.66-6.1,5.66s-6.16-2.71-6.16-5.66v-5.54h2.64Z"/>
          <path class="cls-1" d="M75.49,26.45h5.97c3.88,0,5.83,3,5.83,5.47s-1.94,5.47-5.83,5.47h-5.97v-10.95ZM81.46,34.96c2.02,0,3.11-1.56,3.11-3.03s-1.11-3.02-3.11-3.02h-3.33v6.05h3.33Z"/>
          <path class="cls-1" d="M89.5,26.45h10.59v2.44h-7.95v1.81h7.29v2.44h-7.29v1.83h7.95v2.42h-10.59v-10.95Z"/>
          <path class="cls-1" d="M102.3,26.45h1.66l8.01,6.79v-6.79h2.63v10.95h-1.66l-7.99-6.79v6.79h-2.64v-10.95Z"/>
          <path class="cls-1" d="M121.94,28.89h-5.15v-2.44h12.93v2.44h-5.15v8.51h-2.64v-8.51Z"/>
        </g>
      </g>
      <g class="cls-2">
        <path class="cls-1" d="M71.96,67.92c-.15-.1-.25-.23-.31-.39-.04-.15-.06-.29-.06-.42,0-.08.01-.18.04-.3.06-.13.09-.21.09-.27,0-.13-.09-.18-.28-.15-.15-.09-.35-.18-.59-.27-.23-.08-.41-.16-.55-.24-.14-.08-.25-.22-.34-.41-.08-.15-.11-.31-.11-.47,0-.23.07-.42.22-.58s.34-.24.6-.24c.15,0,.3.04.45.12.15.08.25.14.28.16.28.19.51.28.7.28.15,0,.3-.06.45-.17.2-.15.3-.32.3-.51,0-.25-.18-.51-.55-.78l-.47-.32c-.27-.16-.48-.32-.64-.45-.16-.14-.29-.32-.38-.55-.06-.22-.09-.41-.09-.57,0-.47.14-.86.44-1.17.06-.08.13-.14.2-.18.07-.04.11-.07.12-.08.09-.06.15-.13.18-.19.03-.06.05-.18.05-.36,0-.09-.02-.21-.05-.37-.03-.16-.05-.27-.05-.35,0-.14.03-.27.09-.38.1-.18.28-.34.53-.48s.49-.22.72-.22c.13,0,.23.03.32.08.23.11.34.32.34.61,0,.19-.05.42-.14.68s-.15.45-.18.55c.44,0,.88.08,1.32.25.44.16.65.43.65.8,0,.15-.06.32-.19.49-.13.18-.27.28-.42.32-.1.02-.17.04-.21.04-.1,0-.19-.02-.28-.08-.08-.05-.16-.11-.25-.19-.08-.08-.15-.14-.2-.19-.16-.13-.37-.19-.61-.19-.38,0-.57.16-.57.47,0,.16.07.3.21.42s.33.24.59.38c.19.1.3.17.34.21.29.2.51.45.65.76.15.3.22.63.22.97,0,.57-.17,1.08-.51,1.53-.05.08-.12.15-.2.22-.08.07-.14.12-.18.14-.15.1-.27.2-.34.3-.1.11-.15.22-.15.3,0,.05,0,.11.02.19.01.08.02.17.04.28,0,.32-.06.58-.19.79s-.33.31-.62.31c-.16,0-.32-.05-.46-.14Z"/>
        <path class="cls-1" d="M80.49,68.65c-.57.13-1.11.19-1.63.19-1.06,0-1.78-.28-2.16-.83-.11-.16-.2-.37-.27-.61s-.09-.5-.09-.77c0-.38.06-.68.19-.89.1-.16.23-.29.38-.37.15-.08.35-.16.61-.24.19-.05.34-.1.45-.15.11-.05.19-.13.23-.25.06-.19.09-.41.09-.66,0-.33-.05-.81-.15-1.44-.08-.53-.11-.88-.11-1.04l.02-1.12c0-.78-.08-1.26-.25-1.44-.11-.11-.24-.17-.38-.17-.09,0-.16,0-.23.02-.06.01-.12.03-.17.04-.2.05-.35.08-.44.08-.2,0-.37-.07-.51-.21-.16-.16-.25-.35-.25-.55,0-.38.24-.81.72-1.29.54-.52,1.16-1,1.86-1.44.7-.44,1.3-.66,1.81-.66s.86.23,1.02.67c.16.45.25,1.04.25,1.77v.8l.06,2.14c.01.49.03,1.1.06,1.83s.04,1.57.06,2.53c.27-.04.47-.06.61-.06.3,0,.49.07.57.21.5.29.76.7.76,1.23,0,.43-.17.86-.5,1.3-.34.43-.72.75-1.15.94-.4.18-.89.33-1.46.45Z"/>
        <path class="cls-1" d="M85.25,67.13c-.48-.42-.81-.88-.98-1.38-.06-.21-.09-.42-.09-.61,0-.39.09-.74.27-1.03.18-.3.45-.45.79-.45.29,0,.51.07.66.21.15.14.32.35.49.63.15.24.29.42.42.54.13.12.3.18.51.18.13,0,.23-.01.3-.04.28-.06.51-.23.71-.5s.29-.56.29-.86c0-.19-.03-.34-.09-.45-.11-.24-.27-.41-.47-.5-.2-.09-.44-.14-.72-.14l-.47.02c-.1.01-.25.02-.44.02s-.36-.02-.51-.06c-.38-.1-.65-.27-.82-.52-.17-.25-.27-.51-.3-.78s-.05-.67-.07-1.2c0-.11-.01-.35-.04-.7-.04-.29-.06-.59-.06-.91,0-.42.05-.77.16-1.07.11-.3.3-.52.58-.67.44-.23,1.05-.34,1.84-.34.53,0,1.25.06,2.16.17.47.04.9.15,1.29.34.39.19.59.47.59.83,0,.14-.04.3-.11.47-.13.29-.32.49-.57.6-.25.11-.56.16-.91.16-.29,0-.56-.02-.8-.06-.3-.03-.51-.04-.61-.04-.34,0-.66.05-.95.15-.29.1-.44.27-.44.49,0,.15.08.33.25.53.11.14.28.24.5.29.22.06.53.1.92.14.39.04.71.08.95.13.24.05.44.14.61.28.42.33.73.73.94,1.19s.31.97.31,1.5c0,.71-.17,1.4-.5,2.07-.33.68-.79,1.23-1.37,1.65-.58.42-1.21.63-1.89.63-.23,0-.49-.03-.78-.09-.54-.14-1.05-.42-1.53-.83Z"/>
      </g>
    </g>
  </g>
</svg>